<?xml version="1.0" encoding="UTF-8" standalone="no"?>
<!-- Created with Inkscape (http://www.inkscape.org/) -->

<svg
   width="82.640648mm"
   height="100.29548mm"
   viewBox="0 0 82.640648 100.29548"
   version="1.1"
   id="svg3981"
   xmlns:inkscape="http://www.inkscape.org/namespaces/inkscape"
   xmlns:sodipodi="http://sodipodi.sourceforge.net/DTD/sodipodi-0.dtd"
   xmlns="http://www.w3.org/2000/svg"
   xmlns:svg="http://www.w3.org/2000/svg">
  <sodipodi:namedview
     id="namedview3983"
     pagecolor="#505050"
     bordercolor="#eeeeee"
     borderopacity="1"
     inkscape:showpageshadow="0"
     inkscape:pageopacity="0"
     inkscape:pagecheckerboard="0"
     inkscape:deskcolor="#505050"
     inkscape:document-units="mm"
     showgrid="false" />
  <defs
     id="defs3978">
    <linearGradient
       id="paint0_linear_87_8204"
       x1="12.4809"
       y1="2"
       x2="12.4809"
       y2="22.7407"
       gradientUnits="userSpaceOnUse"
       gradientTransform="translate(-6.1550731,-17.505626)">
      <stop
         stop-color="#327EBD"
         id="stop2019" />
      <stop
         offset="1"
         stop-color="#1565A7"
         id="stop2021" />
    </linearGradient>
    <linearGradient
       id="paint1_linear_87_8204"
       x1="19.518999"
       y1="9.2592802"
       x2="19.518999"
       y2="30"
       gradientUnits="userSpaceOnUse"
       gradientTransform="translate(-6.1550731,-17.505626)">
      <stop
         stop-color="#FFDA4B"
         id="stop2024" />
      <stop
         offset="1"
         stop-color="#F9C600"
         id="stop2026" />
    </linearGradient>
    <linearGradient
       id="paint0_linear_1_59"
       x1="22.4702"
       y1="107"
       x2="69.145103"
       y2="84.9468"
       gradientUnits="userSpaceOnUse">
      <stop
         stop-color="#D83333"
         id="stop2395" />
      <stop
         offset="1"
         stop-color="#F041FF"
         id="stop2397" />
    </linearGradient>
  </defs>
  <g
     inkscape:label="Layer 1"
     inkscape:groupmode="layer"
     id="layer1"
     transform="translate(-50.54832,-263.21242)">
    <g
       id="g2120"
       transform="matrix(0.26458333,0,0,0.26458333,-8.5711155,251.89429)">
      <ellipse
         style="fill:#f8f8f2;fill-opacity:1;stroke:none;stroke-width:5.21216;stroke-linecap:round;stroke-dasharray:none;stroke-opacity:1"
         id="path2108"
         cx="328.2778"
         cy="287.71027"
         rx="37.055824"
         ry="63.234531"
         transform="matrix(0.96406528,-0.26566547,0.29214176,0.95637503,0,0)" />
      <g
         fill="none"
         id="g2003"
         transform="matrix(3.0426062,0,0,3.0426062,384.30998,189.40352)">
        <path
           fill="#8cc5e7"
           d="m 21.467954,3.2061776 c 0.713513,1.4733591 -1.454827,1.630888 -1.34363,2.2888031 0.203861,1.1861004 0.06486,2.9467181 -0.09266,4.6795363 -0.268726,2.937452 1.927413,9.970657 -2.650193,12.796912 -0.861776,0.537451 -2.909652,0.833976 -4.929729,0.880308 0,0 -0.0093,0 -0.0093,0 0,0 -0.0093,0 -0.0093,0 C 10.413127,23.805405 8.0872587,23.50888 7.2254826,22.971429 2.6571429,20.145174 4.8532818,13.111969 4.5938224,10.174517 4.427027,8.4416988 4.2880309,6.6810811 4.5011583,5.4949807 4.6123552,4.8370656 2.4440154,4.6888031 3.157529,3.2061776 3.769112,1.9366795 5.2795367,3.0579151 5.6594595,2.6594595 7.596139,0.64864865 9.9498069,0.11119691 11.803089,0.06486486 c 0.185328,0 1.019305,0 1.019305,0 1.844015,0.0926641 4.197683,0.5930502 6.143629,2.59459464 0.379923,0.3984556 1.881081,-0.72278 2.501931,0.5467181 z M 11.432432,10.906564 c -0.0834,0.03707 -0.222393,0.945174 0.203861,0.991506 0.287259,0.0278 1.074904,0.120463 1.260232,0 0.36139,-0.231661 0.324324,-0.787645 0.120463,-0.926641 -0.342857,-0.222394 -1.491891,-0.111197 -1.584556,-0.06487 z M 9.0787645,4.1050193 C 8.1243243,3.9938224 6.5212355,4.8833977 6.2803089,6.7737452 6.0208494,8.7382239 8.3374517,10.68417 10.56139,8.7382239 11.756757,7.6911197 12.173745,4.4664093 9.0787645,4.1050193 Z m 6.4494205,0 c -3.09498,0.36139 -2.677992,3.5861004 -1.482625,4.6332046 2.223938,1.9459461 4.54054,0 4.281081,-1.9644787 -0.23166,-1.8903475 -1.834749,-2.7799228 -2.798456,-2.6687259 z"
           id="path1997" />
        <path
           fill="#b8937f"
           d="m 12.312741,8.988417 c 0.583784,-0.083398 1.983012,0.5837838 1.890348,1.371429 -0.111197,0.917374 -3.604633,1.037837 -3.789962,-0.0556 -0.111197,-0.6671814 0.416989,-1.0934362 1.899614,-1.315829 z m 7.885715,7.385328 c -0.287259,-0.0093 -0.472587,-0.389189 -0.472587,-0.620849 0,-0.416989 0.0556,-0.908108 0.36139,-1.121236 0.630115,-0.435521 1.130502,1.751352 0.111197,1.742085 z m -15.7806954,0 c -1.019305,0.0093 -0.5189189,-2.177606 0.1111969,-1.742085 0.3057915,0.213128 0.36139,0.704247 0.36139,1.121236 0,0.23166 -0.1853282,0.611583 -0.4725869,0.620849 z m 13.8440154,6.718147 c 0.185328,0.268726 0.194595,0.454054 -0.10193,0.59305 -1.130502,0.518919 -2.140541,-0.176062 -1.760618,-0.370656 0.806177,-0.407722 1.306563,-1.047105 1.862548,-0.222394 z M 6.3544401,23.184556 C 6.9104247,22.359846 7.4108108,22.999228 8.2169884,23.40695 8.5969112,23.601544 7.5868726,24.296525 6.4563707,23.777606 6.1598456,23.63861 6.169112,23.453282 6.3544401,23.184556 Z"
           id="path1999" />
        <path
           fill="#000000"
           d="M 19.735135,3.4285714 C 19.781465,3.2339768 20.26332,3.1413127 20.532046,3.4749034 20.856371,3.873359 20.059459,4.4200771 20.022394,4.1976833 19.92973,3.5953668 19.679537,3.623166 19.735135,3.4285714 Z m -14.8540539,0 C 4.9366795,3.623166 4.6864865,3.5953668 4.5938224,4.1976834 4.5567568,4.4200772 3.7598456,3.8733591 4.0841699,3.4749035 4.3436293,3.1413127 4.8254826,3.2339768 4.8810811,3.4285714 Z M 15.741313,7.9413127 c -0.583418,0 -1.056371,-0.4729532 -1.056371,-1.0563706 0,-0.5834174 0.472953,-1.0563707 1.056371,-1.0563707 0.583417,0 1.05637,0.4729533 1.05637,1.0563707 0,0.5834174 -0.472953,1.0563706 -1.05637,1.0563706 z M 15.463321,6.7644788 c 0.184237,0 0.33359,-0.1493537 0.33359,-0.3335908 0,-0.184237 -0.149353,-0.3335907 -0.33359,-0.3335907 -0.184238,0 -0.333591,0.1493537 -0.333591,0.3335907 0,0.1842371 0.149353,0.3335908 0.333591,0.3335908 z m -4.10502,2.6687258 c 0.111197,-0.4262548 0.500386,-0.5652509 0.815444,-0.5745173 0.806178,-0.018533 1.111969,0.4169884 1.139768,0.7598455 0.0556,0.5837842 -2.205405,0.7227802 -1.955212,-0.1853282 z M 8.8749035,7.9413127 c -0.5834174,0 -1.0563707,-0.4729532 -1.0563707,-1.0563706 0,-0.5834174 0.4729533,-1.0563707 1.0563707,-1.0563707 0.5834174,0 1.0563706,0.4729533 1.0563706,1.0563707 0,0.5834174 -0.4729532,1.0563706 -1.0563706,1.0563706 z M 9.1528958,6.7644788 c 0.184237,0 0.3335907,-0.1493537 0.3335907,-0.3335908 0,-0.184237 -0.1493537,-0.3335907 -0.3335907,-0.3335907 -0.1842371,0 -0.3335908,0.1493537 -0.3335908,0.3335907 0,0.1842371 0.1493537,0.3335908 0.3335908,0.3335908 z"
           id="path2001" />
      </g>
      <g
         style="fill:none"
         id="g2043"
         transform="matrix(2.3030977,0,0,2.3030977,364.78701,165.66584)">
        <path
           fill-rule="evenodd"
           clip-rule="evenodd"
           d="m 6.8613269,-15.505626 c -2.1971,0 -3.97815,1.72453 -3.97815,3.85185 v 2.6666699 h 6.88525 v 0.74074 h -9.94536004 c -2.19706996,0 -3.97813996,1.72454 -3.97813996,3.85184 v 5.7778 c 0,2.1273 1.78107,3.8518 3.97813996,3.8518 H 2.1181469 v -3.2592 c 0,-2.12730003 1.78108,-3.8519 3.97818,-3.8519 h 7.3442001 c 1.8591,0 3.3661,-1.4592 3.3661,-3.2592 v -6.5185499 c 0,-2.12732 -1.781,-3.85185 -3.9781,-3.85185 z m -0.918,4.74074 c 0.7605,0 1.377,-0.59696 1.377,-1.33333 0,-0.73638 -0.6165,-1.33334 -1.377,-1.33334 -0.7606,0 -1.3771,0.59696 -1.3771,1.33334 0,0.73637 0.6165,1.33333 1.3771,1.33333 z"
           fill="url(#paint0_linear_87_8204)"
           id="path2015"
           style="fill:url(#paint0_linear_87_8204)" />
        <path
           fill-rule="evenodd"
           clip-rule="evenodd"
           d="m 12.828327,12.494374 c 2.1971,0 3.9782,-1.7245 3.9782,-3.8518001 v -2.6667 H 9.9212269 v -0.7407 h 9.9454001 c 2.1971,0 3.9781,-1.7246 3.9781,-3.8519 v -5.7778 c 0,-2.1273 -1.781,-3.85182 -3.9781,-3.85182 h -2.2951 v 3.25922 c 0,2.1274 -1.7811,3.8519 -3.9781,3.8519 H 6.2491269 c -1.8591,0 -3.36611,1.45919997 -3.36611,3.2592 v 6.5186 c 0,2.1273001 1.78111,3.8518001 3.97811,3.8518001 z m 0.9181,-4.7407001 c -0.7606,0 -1.3771,0.5969 -1.3771,1.3333 0,0.7364 0.6165,1.3333001 1.3771,1.3333001 0.7605,0 1.377,-0.5969001 1.377,-1.3333001 0,-0.7364 -0.6165,-1.3333 -1.377,-1.3333 z"
           fill="url(#paint1_linear_87_8204)"
           id="path2017"
           style="fill:url(#paint1_linear_87_8204)" />
      </g>
    </g>
    <g
       style="fill:#f8f8f2;fill-opacity:1"
       id="g1067"
       transform="matrix(1.2748007,0,0,1.2748007,76.324808,323.67294)">
      <path
         d="m 29,11.756 h -1.526 c -0.109,-0.295 -0.229,-0.584 -0.361,-0.87 L 28.2,9.81 c 0.441,-0.389 0.717,-0.956 0.717,-1.587 0,-0.545 -0.206,-1.042 -0.545,-1.417 L 28.374,6.808 25.196,3.63 c -0.373,-0.338 -0.87,-0.544 -1.415,-0.544 -0.632,0 -1.199,0.278 -1.587,0.718 l -0.002,0.002 -1.081,1.08 C 20.826,4.755 20.538,4.635 20.243,4.526 L 20.251,3 c 0.003,-0.042 0.005,-0.091 0.005,-0.141 0,-1.128 -0.884,-2.049 -1.997,-2.109 h -0.005 -4.496 c -1.119,0.059 -2.004,0.981 -2.004,2.11 0,0.049 0.002,0.098 0.005,0.147 V 3 4.524 c -0.295,0.109 -0.584,0.229 -0.87,0.361 L 9.815,3.801 C 9.426,3.358 8.858,3.079 8.226,3.079 7.681,3.079 7.184,3.285 6.81,3.624 L 6.812,3.622 3.633,6.801 c -0.338,0.373 -0.544,0.87 -0.544,1.415 0,0.633 0.278,1.2 0.719,1.587 L 3.81,9.805 4.888,10.884 C 4.756,11.171 4.636,11.46 4.526,11.756 L 3.001,11.749 C 2.959,11.746 2.91,11.744 2.861,11.744 c -1.128,0 -2.05,0.885 -2.11,1.998 v 0.005 4.495 c 0.059,1.119 0.982,2.005 2.111,2.005 0.049,0 0.098,-0.002 0.146,-0.005 H 3.001 4.526 c 0.109,0.295 0.229,0.584 0.361,0.87 l -1.084,1.071 c -0.443,0.39 -0.721,0.958 -0.721,1.592 0,0.545 0.206,1.043 0.545,1.418 l -0.002,-0.002 3.179,3.178 c 0.339,0.337 0.806,0.545 1.322,0.545 0.007,0 0.014,0 0.021,0 H 8.146 c 0.653,-0.013 1.24,-0.287 1.662,-0.722 l 10e-4,-0.001 1.079,-1.079 c 0.287,0.132 0.577,0.252 0.873,0.362 l -0.007,1.524 c -0.003,0.042 -0.005,0.091 -0.005,0.14 0,1.128 0.885,2.05 1.998,2.11 h 0.005 4.496 c 1.118,-0.06 2.003,-0.981 2.003,-2.109 0,-0.05 -0.002,-0.099 -0.005,-0.147 v 0.007 -1.526 c 0.296,-0.11 0.585,-0.23 0.872,-0.362 l 1.069,1.079 c 0.423,0.435 1.009,0.709 1.66,0.723 h 0.002 0.002 c 0.006,0 0.014,0 0.021,0 0.515,0 0.982,-0.207 1.323,-0.541 l 3.177,-3.177 c 0.335,-0.339 0.541,-0.805 0.541,-1.32 0,-0.009 0,-0.018 0,-0.028 v 10e-4 C 28.9,23.197 28.628,22.612 28.195,22.19 h -0.001 l -1.08,-1.081 c 0.131,-0.285 0.251,-0.573 0.36,-0.868 l 1.525,0.007 c 0.042,0.003 0.09,0.005 0.139,0.005 1.129,0 2.051,-0.885 2.11,-1.999 v -0.005 -4.495 c -0.06,-1.119 -0.981,-2.004 -2.11,-2.004 -0.049,0 -0.098,0.002 -0.147,0.005 h 0.007 z m -0.25,5.993 -2.162,-0.011 c -0.026,0 -0.048,0.013 -0.074,0.015 -0.093,0.009 -0.179,0.026 -0.261,0.053 l 0.008,-0.002 c -0.31,0.068 -0.565,0.263 -0.711,0.527 l -0.003,0.005 c -0.048,0.071 -0.091,0.152 -0.124,0.238 l -0.003,0.008 c -0.008,0.024 -0.027,0.041 -0.034,0.066 -0.23,0.804 -0.527,1.503 -0.898,2.155 l 0.025,-0.048 c -0.014,0.025 -0.013,0.054 -0.026,0.08 -0.029,0.063 -0.053,0.138 -0.071,0.215 l -0.001,0.008 c -0.023,0.072 -0.04,0.156 -0.048,0.242 v 0.005 c -0.002,0.027 -0.004,0.058 -0.004,0.089 0,0.209 0.061,0.404 0.166,0.568 l -0.003,-0.004 c 0.045,0.088 0.096,0.163 0.154,0.232 l -0.001,-0.002 c 0.017,0.019 0.022,0.043 0.04,0.061 l 1.529,1.531 -2.469,2.467 -1.516,-1.529 c -0.02,-0.021 -0.048,-0.027 -0.069,-0.046 -0.06,-0.05 -0.128,-0.096 -0.2,-0.135 l -0.006,-0.003 c -0.195,-0.109 -0.429,-0.173 -0.677,-0.173 -0.002,0 -0.004,0 -0.006,0 v 0 c -0.076,0.008 -0.145,0.022 -0.211,0.04 l 0.009,-0.002 c -0.102,0.02 -0.192,0.05 -0.276,0.089 l 0.007,-0.003 c -0.022,0.011 -0.047,0.01 -0.069,0.022 -0.606,0.346 -1.307,0.644 -2.043,0.859 l -0.07,0.017 c -0.027,0.008 -0.045,0.027 -0.071,0.037 -0.084,0.033 -0.157,0.071 -0.224,0.116 l 0.004,-0.003 c -0.075,0.041 -0.139,0.085 -0.199,0.135 l 0.002,-0.002 c -0.053,0.052 -0.102,0.11 -0.145,0.171 l -0.003,0.004 c -0.103,0.113 -0.176,0.254 -0.206,0.411 l -10e-4,0.005 c -0.024,0.074 -0.043,0.16 -0.051,0.249 v 0.005 c -0.002,0.026 -0.015,0.048 -0.015,0.075 l -10e-4,2.162 h -3.491 l 0.011,-2.156 c 0,-0.028 -0.014,-0.052 -0.016,-0.079 -0.008,-0.092 -0.026,-0.177 -0.052,-0.258 l 0.002,0.008 c -0.068,-0.313 -0.265,-0.57 -0.531,-0.717 l -0.006,-0.003 c -0.07,-0.047 -0.15,-0.089 -0.235,-0.122 l -0.008,-0.003 c -0.024,-0.008 -0.042,-0.027 -0.067,-0.034 -0.806,-0.23 -1.507,-0.528 -2.161,-0.9 l 0.048,0.025 c -0.023,-0.013 -0.05,-0.012 -0.073,-0.023 -0.072,-0.033 -0.156,-0.061 -0.244,-0.079 l -0.008,-0.001 c -0.092,-0.029 -0.198,-0.045 -0.308,-0.045 -0.221,0 -0.426,0.066 -0.597,0.18 l 0.004,-0.002 c -0.076,0.04 -0.141,0.084 -0.201,0.134 L 9.811,24.671 C 9.79,24.69 9.763,24.696 9.743,24.716 L 8.214,26.245 5.744,23.776 7.276,22.26 C 7.296,22.24 7.303,22.213 7.321,22.193 7.374,22.13 7.422,22.059 7.463,21.984 L 7.466,21.978 C 7.503,21.92 7.537,21.854 7.565,21.784 L 7.568,21.776 C 7.606,21.636 7.63,21.475 7.634,21.309 V 21.306 C 7.626,21.223 7.611,21.148 7.59,21.075 l 0.002,0.009 C 7.572,20.99 7.545,20.907 7.509,20.829 l 0.003,0.007 C 7.5,20.811 7.501,20.784 7.487,20.76 7.14,20.155 6.842,19.455 6.629,18.719 L 6.612,18.651 C 6.605,18.625 6.585,18.606 6.576,18.581 6.542,18.495 6.504,18.421 6.458,18.353 l 0.003,0.005 C 6.421,18.284 6.377,18.22 6.328,18.161 L 6.33,18.163 C 6.278,18.11 6.221,18.062 6.161,18.019 L 6.157,18.016 C 6.097,17.965 6.029,17.919 5.957,17.88 L 5.951,17.877 C 5.894,17.851 5.825,17.828 5.755,17.811 L 5.747,17.809 C 5.67,17.783 5.58,17.764 5.488,17.756 H 5.483 C 5.457,17.754 5.436,17.741 5.41,17.741 L 3.248,17.74 V 14.248 L 5.41,14.259 C 5.57,14.257 5.721,14.224 5.86,14.167 L 5.852,14.17 c 0.054,-0.024 0.099,-0.048 0.142,-0.075 l -0.005,0.003 c 0.09,-0.047 0.168,-0.1 0.239,-0.16 L 6.226,13.939 C 6.269,13.9 6.308,13.86 6.344,13.817 L 6.346,13.815 C 6.402,13.75 6.452,13.677 6.493,13.6 L 6.496,13.593 C 6.523,13.546 6.55,13.491 6.572,13.434 l 0.003,-0.008 c 0.01,-0.028 0.029,-0.05 0.037,-0.078 0.23,-0.805 0.527,-1.506 0.899,-2.159 L 7.486,11.237 C 7.5,11.213 7.499,11.185 7.511,11.161 7.542,11.094 7.568,11.014 7.586,10.932 l 10e-4,-0.008 c 0.02,-0.086 0.032,-0.185 0.032,-0.287 0,-0.317 -0.113,-0.607 -0.3,-0.834 L 7.321,9.805 C 7.304,9.785 7.298,9.76 7.279,9.742 L 5.752,8.213 8.221,5.744 9.739,7.275 C 9.794,7.32 9.855,7.362 9.919,7.397 L 9.925,7.4 c 0.042,0.033 0.089,0.065 0.138,0.094 l 0.006,0.003 c 0.16,0.088 0.35,0.142 0.551,0.148 h 0.002 l 0.005,0.001 c 0.012,0 0.023,-0.009 0.034,-0.009 0.186,-0.008 0.359,-0.056 0.513,-0.135 l -0.007,0.003 c 0.022,-0.011 0.047,-0.006 0.07,-0.018 0.605,-0.346 1.305,-0.645 2.041,-0.858 l 0.069,-0.017 c 0.025,-0.007 0.042,-0.026 0.066,-0.034 0.091,-0.035 0.17,-0.076 0.243,-0.125 L 13.652,6.456 C 13.721,6.418 13.78,6.377 13.835,6.332 l -0.002,0.002 c 0.058,-0.056 0.11,-0.117 0.156,-0.183 l 0.003,-0.004 c 0.046,-0.056 0.089,-0.119 0.126,-0.185 l 0.003,-0.006 c 0.028,-0.062 0.053,-0.135 0.07,-0.21 L 14.193,5.738 C 14.217,5.665 14.235,5.58 14.243,5.491 V 5.486 C 14.245,5.459 14.258,5.437 14.258,5.41 l 0.001,-2.162 h 3.491 l -0.011,2.156 c 0,0.028 0.014,0.051 0.015,0.079 0.008,0.093 0.026,0.178 0.052,0.26 L 17.804,5.735 c 0.019,0.084 0.044,0.157 0.075,0.227 L 17.876,5.954 c 0.04,0.073 0.082,0.136 0.13,0.194 L 18.004,6.146 c 0.048,0.07 0.101,0.131 0.158,0.187 v 0 c 0.053,0.044 0.112,0.084 0.174,0.12 l 0.006,0.003 c 0.068,0.046 0.147,0.087 0.23,0.119 l 0.008,0.003 c 0.025,0.009 0.043,0.028 0.069,0.035 0.804,0.229 1.503,0.527 2.155,0.899 L 20.757,7.487 c 0.022,0.012 0.046,0.007 0.068,0.018 0.147,0.076 0.32,0.124 0.503,0.132 h 0.003 c 0.012,0 0.024,0.009 0.036,0.009 L 21.395,7.638 C 21.588,7.63 21.767,7.579 21.926,7.495 L 21.919,7.498 C 21.978,7.465 22.028,7.432 22.075,7.394 L 22.072,7.396 C 22.14,7.359 22.199,7.32 22.253,7.276 L 22.251,7.278 23.782,5.75 26.251,8.22 24.72,9.736 c -0.02,0.02 -0.027,0.047 -0.046,0.068 -0.053,0.063 -0.101,0.134 -0.142,0.209 l -0.003,0.006 c -0.084,0.123 -0.138,0.272 -0.148,0.434 v 0.002 c -0.013,0.056 -0.02,0.121 -0.02,0.187 0,0.097 0.016,0.19 0.045,0.277 l -0.002,-0.006 c 0.02,0.094 0.047,0.176 0.083,0.254 L 24.484,11.16 c 0.012,0.025 0.011,0.053 0.025,0.078 0.347,0.604 0.645,1.303 0.858,2.038 l 0.017,0.068 c 0.008,0.03 0.028,0.052 0.038,0.08 0.024,0.062 0.049,0.113 0.077,0.163 l -0.003,-0.006 c 0.211,0.397 0.619,0.665 1.09,0.674 h 0.001 l 2.162,10e-4 z M 16,10.75 c -2.899,0 -5.25,2.351 -5.25,5.25 0,2.899 2.351,5.25 5.25,5.25 2.899,0 5.25,-2.351 5.25,-5.25 v 0 C 21.246,13.102 18.898,10.754 16,10.75 Z m 0,8 c -1.519,0 -2.75,-1.231 -2.75,-2.75 0,-1.519 1.231,-2.75 2.75,-2.75 1.519,0 2.75,1.231 2.75,2.75 v 0 c -0.002,1.518 -1.232,2.748 -2.75,2.75 z"
         id="path1058"
         style="fill:#f8f8f2;fill-opacity:1" />
    </g>
    <g
       style="fill:none"
       id="g2423"
       transform="matrix(0.71720783,0,0,0.71720783,95.500903,267.20279)">
      <path
         d="m 20.188223,6.0208383 c 0,1.65685 -4.0294,3 -9,3 -4.9705602,0 -9.0000002,-1.34315 -9.0000002,-3 m 18.0000002,0 c 0,-1.65685 -4.0294,-3 -9,-3 -4.9705602,0 -9.0000002,1.34315 -9.0000002,3 m 18.0000002,0 V 20.020838 c 0,1.66 -4,3 -9,3 -5.0000002,0 -9.0000002,-1.34 -9.0000002,-3 V 6.0208383 M 20.188223,10.741048 c 0,1.65999 -4,2.99999 -9,2.99999 -5.0000002,0 -9.0000002,-1.34 -9.0000002,-2.99999 m 18.0000002,4.71979 c 0,1.66 -4,3 -9,3 -5.0000002,0 -9.0000002,-1.34 -9.0000002,-3"
         stroke="#000000"
         stroke-width="2"
         stroke-linecap="round"
         stroke-linejoin="round"
         id="path2414"
         style="stroke:#f8f8f2;stroke-opacity:1" />
    </g>
    <g
       style="fill:none"
       id="g1984"
       transform="matrix(0.5855345,0,0,0.5855345,66.474598,302.34558)">
      <rect
         width="48"
         height="48"
         fill="#ffffff"
         fill-opacity="0.01"
         id="rect1957"
         x="0"
         y="0" />
      <path
         d="m 37,22.0001 -3,3 -11,-11 3,-3 c 1.5,-1.50008 7,-4.00005 11,0 4,4 1.5,9.4999 0,11 z"
         fill="#2f88ff"
         stroke="#000000"
         stroke-width="4"
         stroke-linecap="round"
         stroke-linejoin="round"
         id="path1959" />
      <path
         d="m 42,6 -5,5"
         stroke="#000000"
         stroke-width="4"
         stroke-linecap="round"
         stroke-linejoin="round"
         id="path1961" />
      <path
         d="m 11,25.9999 3,-3 11,11 -3,3 c -1.5,1.5001 -7,4.0001 -11,0 -4,-4 -1.5,-9.4999 0,-11 z"
         fill="#2f88ff"
         stroke="#000000"
         stroke-width="4"
         stroke-linecap="round"
         stroke-linejoin="round"
         id="path1963" />
      <path
         d="m 23,32 4,-4"
         stroke="#000000"
         stroke-width="4"
         stroke-linecap="round"
         stroke-linejoin="round"
         id="path1965" />
      <path
         d="m 6,42 5,-5"
         stroke="#000000"
         stroke-width="4"
         stroke-linecap="round"
         stroke-linejoin="round"
         id="path1967" />
      <path
         d="m 16,25 4,-4"
         stroke="#000000"
         stroke-width="4"
         stroke-linecap="round"
         stroke-linejoin="round"
         id="path1969" />
    </g>
    <g
       style="fill:none"
       id="g1995"
       transform="matrix(1.411962,0,0,1.411962,101.70847,278.57054)">
      <path
         fill="#fa7e14"
         d="m 15.27857,10.191945 c -0.053,0.073 -0.098,0.133 -0.141,0.194 l -2.067,2.936 c -0.64,0.91 -1.282,1.82 -1.924,2.73 a 0.128,0.128 0 0 1 -0.092,0.051 c -0.906,-0.007 -1.8130002,-0.017 -2.7190002,-0.028 -0.01,0 -0.02,-0.003 -0.04,-0.006 a 0.455,0.455 0 0 1 0.025,-0.053 13977.496,13977.496 0 0 1 5.4460002,-8.1460004 c 0.092,-0.138 0.188,-0.273 0.275,-0.413 a 0.165,0.165 0 0 0 0.018,-0.124 c -0.167,-0.515 -0.338,-1.03 -0.508,-1.543 -0.073,-0.22 -0.15,-0.44 -0.218,-0.66 -0.022,-0.072 -0.059,-0.094 -0.134,-0.093 -0.57,0.002 -1.136,0.001 -1.704,0.001 -0.108,0 -0.108,0 -0.108,-0.103 0,-0.674 0,-1.347 -0.002,-2.021 0,-0.075 0.026,-0.092 0.099,-0.092 1.143,0.002 2.286,0.002 3.43,0 a 0.113,0.113 0 0 1 0.076,0.017 0.107,0.107 0 0 1 0.045,0.061 18266.184,18266.184 0 0 0 3.92,9.5100004 c 0.218,0.53 0.438,1.059 0.654,1.59 0.026,0.064 0.053,0.076 0.12,0.056 0.6,-0.178 1.2,-0.352 1.8,-0.531 0.075,-0.023 0.102,-0.008 0.126,0.064 0.204,0.62 0.412,1.239 0.62,1.858 l 0.02,0.073 c -0.043,0.015 -0.083,0.032 -0.124,0.043 l -4.085,1.25 c -0.065,0.02 -0.085,0 -0.106,-0.054 l -1.25,-3.048 -1.226,-2.984 -0.183,-0.449 c -0.01,-0.026 -0.023,-0.048 -0.043,-0.087 z"
         id="path1986" />
    </g>
    <g
       id="g2204"
       style="fill:#000000"
       transform="matrix(0.9035984,0,0,0.9035984,40.808171,265.26173)">
      <rect
         style="fill:#f8f8f2;fill-opacity:1;stroke:none;stroke-width:1.50078;stroke-linecap:round;stroke-dasharray:none;stroke-opacity:1"
         id="rect2200"
         width="20.35124"
         height="20.35124"
         x="25.067505"
         y="12.396033" />
      <path
         d="m 42.549211,13.340135 c 0.0451,-0.0029 0.08788,0.02021 0.110293,0.05944 0.02242,0.03923 0.02056,0.08779 -0.0048,0.125195 v 0 l -4.563008,6.198307 c -0.03344,0.03775 -0.08145,0.05936 -0.131879,0.05936 -0.05043,0 -0.09844,-0.02161 -0.131879,-0.05936 v 0 l -1.608912,-1.793554 c -0.0393,-0.04079 -0.09499,-0.06154 -0.151394,-0.05642 -0.05641,0.0051 -0.107443,0.03558 -0.13874,0.08279 v 0 l -0.975904,1.239662 c -0.03087,0.06981 -0.02073,0.150949 0.02638,0.211006 v 0 l 2.901335,3.006839 c 0.03344,0.03775 0.08145,0.05936 0.131878,0.05936 0.05043,0 0.09844,-0.02161 0.13188,-0.05936 v 0 l 5.697168,-6.409314 c 0.03363,-0.03615 0.08576,-0.04843 0.131999,-0.03109 0.04623,0.01734 0.07743,0.06086 0.07901,0.110218 v 0 15.588085 c 0.0022,0.0356 -0.01101,0.07043 -0.03623,0.09565 -0.02522,0.02522 -0.06005,0.03841 -0.09565,0.03623 v 0 H 26.565491 c -0.0356,0.0022 -0.07043,-0.01101 -0.09565,-0.03623 -0.02522,-0.02522 -0.03841,-0.06005 -0.03623,-0.09565 v 0 -18.199287 c -0.0022,-0.0356 0.01101,-0.07043 0.03623,-0.09565 0.02522,-0.02522 0.06005,-0.03841 0.09565,-0.03623 v 0 z M 38.06533,23.864071 c -0.785237,-0.01381 -1.542012,0.293868 -2.094848,0.851685 -0.552836,0.557816 -0.853713,1.317321 -0.832863,2.102402 0,1.819928 1.318788,2.980463 3.033214,2.980463 0.79363,0.01975 1.571864,-0.221134 2.215566,-0.685771 0.05967,-0.05418 0.07087,-0.143803 0.02637,-0.211006 v 0 l -0.474764,-0.712146 c -0.05338,-0.0612 -0.144206,-0.07256 -0.211007,-0.02638 -0.412654,0.281813 -0.89833,0.437597 -1.397916,0.448389 -0.923152,0 -1.503419,-0.580267 -1.608922,-1.266038 0.0019,-0.0283 0.02445,-0.05084 0.05275,-0.05275 v 0 h 3.982743 c 0.08491,-0.0058 0.152512,-0.07334 0.158255,-0.158255 v 0 -0.158254 c 0,-1.846304 -1.160534,-3.112341 -2.848584,-3.112341 z m -3.929991,-1.00228 c -0.801119,-0.654832 -1.814789,-0.992723 -2.848584,-0.949528 -1.793553,0 -2.901335,1.055032 -2.901335,2.321068 0,2.87496 4.378378,1.951808 4.378378,3.296973 0,0.422013 -0.422012,0.844025 -1.318788,0.844025 -0.851712,0.007 -1.673438,-0.314107 -2.294693,-0.896777 -0.03709,-0.03468 -0.08734,-0.05167 -0.137859,-0.04661 -0.05052,0.0051 -0.09641,0.03166 -0.125899,0.07299 v 0 l -0.68577,0.949527 c -0.0445,0.0672 -0.0333,0.156824 0.02638,0.211007 0.712146,0.659394 1.714425,1.107782 3.112342,1.107782 2.05731,0 3.05959,-1.055031 3.112342,-2.426572 0,-2.848583 -4.378379,-2.030933 -4.378379,-3.24422 0,-0.448387 0.395636,-0.764896 1.081406,-0.764896 0.75596,-0.01036 1.492201,0.241266 2.083686,0.712145 0.03478,0.02849 0.07957,0.04175 0.124245,0.03679 0.04468,-0.0049 0.08547,-0.02773 0.113138,-0.06316 v 0 l 0.68577,-0.923151 c 0.02849,-0.03477 0.04175,-0.07957 0.03679,-0.124244 -0.0049,-0.04468 -0.02773,-0.08547 -0.06316,-0.113139 z m 3.956366,2.162814 c 0.717397,-0.04013 1.336701,0.49738 1.397917,1.213286 -0.0019,0.0283 -0.02445,0.05084 -0.05275,0.05275 v 0 h -2.690329 c -0.0283,-0.0019 -0.05084,-0.02445 -0.05275,-0.05275 0.08819,-0.701843 0.690647,-1.224727 1.397916,-1.213286 z"
         fill="#2cb134"
         id="path2136"
         style="stroke-width:0.0688258" />
    </g>
    <g
       id="g2219"
       transform="matrix(0.09257536,0,0,0.09257536,75.539596,263.17869)">
      <path
         d="m 255.00793,158.08562 c -1.53482,-4.64821 -5.55574,-7.88634 -10.75614,-8.6638 -2.45181,-0.36597 -5.26012,-0.20989 -8.5828,0.47534 -5.79163,1.19487 -10.08865,1.64952 -13.2245,1.7382 11.8363,-19.98514 21.46143,-42.77565 27.00238,-64.228801 8.95941,-34.688296 4.17168,-50.491123 -1.42307,-57.639612 C 233.21718,10.847778 211.61445,0.68345497 185.55152,0.37187991 171.64948,0.20219861 159.44366,2.9472517 153.07736,4.9207575 147.14915,3.8754734 140.77458,3.2913441 134.08606,3.1831501 121.55034,2.9833164 110.47316,5.7159538 101.00826,11.332582 95.767058,9.5612748 87.358079,7.0633533 77.646042,5.4688222 54.80351,1.7186882 36.393977,4.6411085 22.928259,14.153903 6.6223002,25.672129 -0.93709007,45.68388 0.46115473,73.633995 0.90457275,82.508268 5.8690808,109.50769 13.685062,135.1142 c 4.49212,14.71734 9.282217,26.93971 14.237266,36.32953 7.026697,13.31496 14.545293,21.15636 22.986199,23.97177 4.731565,1.5768 13.327371,2.68002 22.36896,-4.84863 1.145792,1.38702 2.674107,2.76634 4.703779,4.04693 2.576554,1.62528 5.727778,2.95316 8.874272,3.74008 11.341451,2.83551 21.964562,2.12605 31.027442,-1.84757 0.0556,1.61168 0.0987,3.15181 0.13539,4.48148 0.0603,2.15737 0.11942,4.27218 0.19865,6.24983 0.53683,13.37467 1.44672,23.77371 4.1427,31.04931 0.14781,0.40085 0.34705,1.0104 0.55753,1.65661 1.34444,4.11846 3.59405,11.01214 9.31532,16.41179 5.92584,5.59238 13.09266,7.30812 19.65643,7.30752 3.29193,0 6.43311,-0.43159 9.18762,-1.02222 9.82082,-2.10417 20.97367,-5.31097 29.04151,-16.79845 7.62738,-10.86019 11.33554,-27.217 12.00658,-52.99082 0.0869,-0.72839 0.16732,-1.42426 0.24477,-2.08761 0.052,-0.44756 0.10524,-0.90516 0.15904,-1.36159 l 1.79732,0.15786 0.46293,0.0313 c 10.00233,0.45584 22.23238,-1.66548 29.74329,-5.15429 5.9353,-2.75451 24.9538,-12.79468 20.47587,-26.35144"
         fill="#000000"
         id="path2209" />
      <path
         d="m 237.90559,160.72248 c -29.73975,6.13454 -31.7842,-3.9346 -31.7842,-3.9346 C 237.52188,110.1947 250.64824,51.051603 239.32039,36.576665 208.41711,-2.908231 154.92198,15.76558 154.02923,16.250383 l -0.28734,0.05144 c -5.87558,-1.219695 -12.45117,-1.94631 -19.84147,-2.066919 -13.45685,-0.220527 -23.66434,3.527833 -31.40996,9.401644 0,0 -95.4300628,-39.313441 -90.991744,49.444065 0.944185,18.882512 27.063871,142.873417 58.21842,105.422337 11.386975,-13.69453 22.389063,-25.27365 22.389063,-25.27365 5.464683,3.63012 12.006581,5.48183 18.864771,4.8167 l 0.5327,-0.45228 c -0.16554,1.70036 -0.0899,3.36347 0.21343,5.33225 -8.02587,8.96709 -5.66747,10.54152 -21.71152,13.8441 -16.234421,3.34574 -6.697386,9.30232 -0.470615,10.85901 7.548749,1.88778 25.012915,4.56188 36.813155,-11.95691 l -0.47061,1.88482 c 3.14472,2.51861 5.35294,16.38341 4.98283,28.95165 -0.3701,12.56883 -0.61724,21.19774 1.86058,27.9377 2.47782,6.73995 4.94737,21.90485 26.03869,17.38553 17.6238,-3.77674 26.75644,-13.56386 28.02698,-29.88933 0.90161,-11.60632 2.94193,-9.89059 3.07081,-20.26716 l 1.63651,-4.91248 c 1.88719,-15.73306 0.29975,-20.80872 11.15758,-18.44796 l 2.63863,0.23176 c 7.99158,0.3636 18.45092,-1.28532 24.5896,-4.13857 13.21859,-6.13454 21.05822,-16.37691 8.02469,-13.68565 h 10e-4"
         fill="#336791"
         id="path2211" />
      <path
         d="m 108.07634,81.525062 c -2.67942,-0.373062 -5.10699,-0.02779 -6.33496,0.901617 -0.69114,0.523233 -0.90458,1.129238 -0.96192,1.546642 -0.15431,1.104998 0.62019,2.326466 1.09553,2.956711 1.34563,1.783723 3.31204,3.009922 5.25835,3.280111 0.28201,0.03902 0.56225,0.05794 0.84131,0.05794 3.24582,0 6.19603,-2.526891 6.45617,-4.392203 0.32517,-2.335926 -3.06609,-3.89321 -6.35448,-4.350818"
         fill="#ffffff"
         id="path2213" />
      <path
         d="m 196.86045,81.598965 h -5.9e-4 c -0.25541,-1.83102 -3.51423,-2.353071 -6.60634,-1.923251 -3.08737,0.430411 -6.08192,1.823926 -5.83183,3.659085 0.20102,1.427215 2.77698,3.863649 5.8277,3.863058 0.25718,0 0.51732,-0.01715 0.77923,-0.0538 2.03617,-0.282013 3.5302,-1.57502 4.23967,-2.320554 1.08134,-1.13515 1.70627,-2.401552 1.59216,-3.224536"
         fill="#ffffff"
         id="path2215" />
      <path
         d="m 247.80209,160.02542 c -1.13397,-3.4291 -4.7836,-4.53291 -10.84778,-3.28011 -18.00514,3.71584 -24.45303,1.14165 -26.57079,-0.4174 13.99545,-21.32072 25.50836,-47.09159 31.71917,-71.137259 2.94252,-11.38993 4.5678,-21.967519 4.70023,-30.588748 0.14662,-9.464314 -1.46446,-16.4177 -4.78892,-20.665644 C 228.61155,16.810864 208.94211,7.6250162 185.13175,7.3725635 168.76312,7.1886928 154.93321,11.378106 152.25201,12.555825 146.60582,11.151667 140.45059,10.289663 133.75024,10.179695 121.46165,9.9810439 110.84031,12.922975 102.04586,18.919169 98.225958,17.497866 88.3537,14.10897 76.281497,12.164434 55.408924,8.8033256 38.823316,11.349728 26.987012,19.735058 12.863852,29.740933 6.3438337,47.626642 7.6072794,72.894374 c 0.4250901,8.501801 5.2683976,34.653416 12.9129236,59.698846 10.062042,32.96369 20.999095,51.62509 32.507862,55.46332 1.346808,0.44933 2.900545,0.76386 4.612729,0.76386 4.198282,0 9.344887,-1.89251 14.700194,-8.33035 8.894966,-10.70115 17.19989,-19.66825 20.261248,-22.92648 4.524046,2.42874 9.493284,3.78442 14.577224,3.9204 0.009,0.13303 0.0225,0.26605 0.0343,0.39849 -1.01987,1.20964 -1.85645,2.26971 -2.56946,3.17487 -3.52192,4.47084 -4.25504,5.40142 -15.592355,7.73617 -3.224536,0.66512 -11.79078,2.43052 -11.915528,8.4344 -0.136573,6.55963 10.12412,9.31473 11.293561,9.6068 4.074124,1.01986 7.998669,1.52299 11.741712,1.52299 9.10366,-5.9e-4 17.11416,-2.99218 23.51652,-8.78086 -0.19747,23.38587 0.77805,46.43001 3.58578,53.45138 2.29927,5.74729 7.91767,19.79477 25.66444,19.79359 2.60316,0 5.47,-0.30271 8.623,-0.97847 18.52069,-3.97126 26.56311,-12.15675 29.67472,-30.20328 1.66488,-9.64463 4.52227,-32.67636 5.86553,-45.02998 2.8361,0.88447 6.4875,1.28946 10.43451,1.28887 8.23221,0 17.73081,-1.74884 23.68799,-4.514 6.69147,-3.10747 18.76781,-10.73426 16.57792,-17.35952 z m -44.1059,-83.480829 c -0.0615,3.647261 -0.56344,6.958116 -1.09554,10.414411 -0.57231,3.717026 -1.16472,7.559982 -1.3137,12.225331 -0.14722,4.540007 0.41977,9.260337 0.96842,13.824587 1.10796,9.21955 2.24488,18.71165 -2.15678,28.07782 -0.68405,-1.21496 -1.34445,-2.54049 -1.94986,-4.0085 -0.54688,-1.32611 -1.73465,-3.45629 -3.37885,-6.40473 -6.3994,-11.47565 -21.38457,-38.34915 -13.71344,-49.315173 2.28449,-3.264739 8.08322,-6.619935 22.63975,-4.813746 z m -17.6439,-61.786457 c 21.33372,0.471206 38.20903,8.452138 50.15767,23.719908 9.16397,11.710965 -0.92704,64.997988 -30.14001,110.968608 -0.28852,-0.36656 -0.58236,-0.73666 -0.88625,-1.11623 -0.1212,-0.15194 -0.24476,-0.30625 -0.36951,-0.46234 7.54875,-12.46714 6.07246,-24.80184 4.75876,-35.73831 -0.53979,-4.48798 -1.04942,-8.72705 -0.91994,-12.708357 0.1342,-4.221339 0.69232,-7.840221 1.23152,-11.340267 0.66394,-4.313571 1.33853,-8.77613 1.15229,-14.037432 0.13894,-0.551612 0.19511,-1.203733 0.12239,-1.977645 -0.47535,-5.045506 -6.23505,-20.143593 -17.97558,-33.810919 -6.42128,-7.474254 -15.78686,-15.839483 -28.57386,-21.481533 5.50016,-1.13988 13.02171,-2.202901 21.44252,-2.015483 z M 66.674106,175.77799 c -5.899824,7.09351 -9.97454,5.73429 -11.314254,5.28791 C 46.629247,178.15353 36.499806,159.70202 27.568776,130.44175 19.840887,105.12377 15.324527,79.665072 14.967427,72.526042 13.838781,49.948379 19.311741,34.212952 31.234956,25.757266 c 19.403972,-13.760739 51.30642,-5.524398 64.12534,-1.346809 -0.184462,0.181506 -0.376019,0.351779 -0.558707,0.53624 -21.035159,21.244453 -20.536166,57.540878 -20.48473,59.759151 -0.0018,0.856092 0.06977,2.068101 0.168499,3.735353 0.361829,6.104388 1.035233,17.466529 -0.763862,30.333929 -1.672572,11.95692 2.013118,23.6602 10.110523,32.10879 0.838355,0.87442 1.713367,1.69563 2.617348,2.46836 -3.604693,3.8601 -11.43782,12.3956 -19.775261,22.42571 z m 22.478929,-29.99338 c -6.526522,-6.80913 -9.490328,-16.28113 -8.132878,-25.98903 1.900194,-13.59283 1.198411,-25.430906 0.821801,-31.790702 -0.05262,-0.889792 -0.09933,-1.669617 -0.127113,-2.285081 3.073183,-2.724361 17.313996,-10.355289 27.469455,-8.028231 4.63519,1.061838 7.45829,4.217201 8.63246,9.64582 6.0766,28.102654 0.80465,39.815984 -3.43147,49.228264 -0.87323,1.93922 -1.69799,3.77201 -2.40273,5.66866 l -0.5457,1.46564 c -1.38228,3.70639 -2.66819,7.15204 -3.46517,10.42447 -6.93742,-0.0213 -13.686831,-2.9845 -18.818655,-8.33981 z m 1.064794,37.90041 c -2.025533,-0.50608 -3.847686,-1.38523 -4.916619,-2.11421 0.892748,-0.42036 2.481959,-0.99148 5.237654,-1.55906 13.337426,-2.74624 15.396656,-4.68368 19.894686,-10.3949 1.03169,-1.30897 2.20054,-2.79353 3.81931,-4.6015 5.9e-4,-0.001 0.001,-0.002 0.002,-0.002 2.41161,-2.69953 3.51424,-2.24192 5.51435,-1.41244 1.62113,0.67104 3.1997,2.70249 3.84,4.9385 0.30271,1.05592 0.64325,3.06076 -0.47002,4.61982 -9.39633,13.15592 -23.08789,12.98683 -32.921131,10.52615 z m 69.798721,64.95247 c -16.31601,3.4959 -22.09286,-4.82912 -25.89975,-14.34605 -2.45712,-6.14459 -3.6644,-33.85113 -2.80772,-64.44756 0.0112,-0.40735 -0.0467,-0.80052 -0.15904,-1.17003 -0.0975,-0.71361 -0.24772,-1.43549 -0.45583,-2.16211 -1.27468,-4.45192 -4.3792,-8.17604 -8.10391,-9.71972 -1.47983,-0.6131 -4.19651,-1.7382 -7.46066,-0.90339 0.69647,-2.86803 1.90375,-6.10616 3.21212,-9.6133 l 0.54925,-1.4757 c 0.61842,-1.66311 1.39352,-3.38594 2.21413,-5.20927 4.433,-9.84861 10.50428,-23.33739 3.91509,-53.81085 -2.46836,-11.413579 -10.71002,-16.987048 -23.20436,-15.692859 -7.490808,0.775095 -14.343094,3.797432 -17.76096,5.53031 -0.734891,0.372471 -1.407113,0.731935 -2.034993,1.082531 0.953644,-11.50049 4.558337,-32.992074 18.040613,-46.589635 8.4882,-8.560924 19.79358,-12.788767 33.56792,-12.561146 27.14014,0.444601 44.544,14.372656 54.36601,25.978975 8.46337,10.001737 13.04654,20.076194 14.87578,25.509543 -13.75482,-1.398245 -23.10976,1.317247 -27.85256,8.096813 -10.31686,14.747492 5.64442,43.372198 13.31555,57.128798 1.40652,2.52157 2.62089,4.70023 3.00282,5.62608 2.49793,6.05414 5.73192,10.09574 8.09327,13.04654 0.72366,0.90399 1.42603,1.78077 1.95991,2.54641 -4.16577,1.20136 -11.64889,3.97598 -10.96721,17.84668 -0.54984,6.96048 -4.46137,39.54639 -6.44789,51.05929 -2.62267,15.20983 -8.21978,20.87553 -23.95758,24.24965 z m 68.10428,-77.93693 c -4.25977,1.97765 -11.38875,3.46103 -18.16122,3.77911 -7.48016,0.35059 -11.28765,-0.83777 -12.18335,-1.56852 -0.42095,-8.6437 2.79708,-9.54709 6.20194,-10.5031 0.53506,-0.15076 1.05711,-0.29679 1.56083,-0.47297 0.31335,0.25481 0.65626,0.50786 1.03169,0.75558 6.01215,3.9683 16.73577,4.39634 31.87406,1.27172 0.0556,-0.0118 0.11115,-0.0225 0.16614,-0.0337 -2.0415,1.90907 -5.53563,4.47143 -10.49009,6.77188 z"
         fill="#ffffff"
         id="path2217" />
    </g>
    <g
       style="fill:none"
       id="g2412"
       transform="matrix(0.21212635,0,0,0.21212635,50.54832,305.19418)">
      <path
         d="m 27.5894,91.1365 c -4.8339,-4.4187 -6.245,-13.703 -4.2311,-20.4293 3.492,4.2408 8.3305,5.5842 13.3422,6.3425 7.737,1.1702 15.3354,0.7325 22.5227,-2.8038 0.8222,-0.4049 1.582,-0.9432 2.4804,-1.4885 0.6744,1.9566 0.8499,3.9318 0.6144,5.9422 -0.5728,4.8961 -3.0094,8.6782 -6.8848,11.5452 -1.5497,1.1468 -3.1895,2.1719 -4.79,3.2531 -4.917,3.3234 -6.2473,7.2201 -4.3997,12.8881 0.0439,0.139 0.0832,0.277 0.1825,0.614 -2.5105,-1.124 -4.3443,-2.76 -5.7415,-4.911 -1.4758,-2.2697 -2.1779,-4.7809 -2.2149,-7.4981 -0.0185,-1.3223 -0.0185,-2.6564 -0.1963,-3.96 -0.4342,-3.1782 -1.9262,-4.6012 -4.7369,-4.6831 -2.8846,-0.0842 -5.1664,1.6991 -5.7715,4.5076 -0.0462,0.2153 -0.1132,0.4283 -0.1802,0.6787 z"
         fill="#ffffff"
         id="path2389" />
      <path
         d="m 27.5894,91.1365 c -4.8339,-4.4187 -6.245,-13.703 -4.2311,-20.4293 3.492,4.2408 8.3305,5.5842 13.3422,6.3425 7.737,1.1702 15.3354,0.7325 22.5227,-2.8038 0.8222,-0.4049 1.582,-0.9432 2.4804,-1.4885 0.6744,1.9566 0.8499,3.9318 0.6144,5.9422 -0.5728,4.8961 -3.0094,8.6782 -6.8848,11.5452 -1.5497,1.1468 -3.1895,2.1719 -4.79,3.2531 -4.917,3.3234 -6.2473,7.2201 -4.3997,12.8881 0.0439,0.139 0.0832,0.277 0.1825,0.614 -2.5105,-1.124 -4.3443,-2.76 -5.7415,-4.911 -1.4758,-2.2697 -2.1779,-4.7809 -2.2149,-7.4981 -0.0185,-1.3223 -0.0185,-2.6564 -0.1963,-3.96 -0.4342,-3.1782 -1.9262,-4.6012 -4.7369,-4.6831 -2.8846,-0.0842 -5.1664,1.6991 -5.7715,4.5076 -0.0462,0.2153 -0.1132,0.4283 -0.1802,0.6787 z"
         fill="url(#paint0_linear_1_59)"
         id="path2391"
         style="fill:url(#paint0_linear_1_59)" />
      <path
         d="m 0,69.5866 c 0,0 14.3139,-6.9729 28.6678,-6.9729 L 39.4901,29.1204 c 0.4052,-1.6197 1.5882,-2.7205 2.9238,-2.7205 1.3356,0 2.5186,1.1008 2.9238,2.7205 l 10.8224,33.4933 c 17,0 28.6677,6.9729 28.6677,6.9729 0,0 -24.3133,-66.23427 -24.3608,-66.36716 C 59.7692,1.2612 58.5911,0 57.0029,0 H 27.8274 C 26.2392,0 25.1087,1.2612 24.3634,3.21944 24.3108,3.34983 0,69.5866 0,69.5866 Z"
         fill="#ffffff"
         id="path2393" />
    </g>
  </g>
</svg>
