<?xml version="1.0" encoding="UTF-8" standalone="no"?>
<!-- Created with Inkscape (http://www.inkscape.org/) -->

<svg
   width="59.11684mm"
   height="105.04892mm"
   viewBox="0 0 59.11684 105.04892"
   version="1.1"
   id="svg4507"
   xmlns:inkscape="http://www.inkscape.org/namespaces/inkscape"
   xmlns:sodipodi="http://sodipodi.sourceforge.net/DTD/sodipodi-0.dtd"
   xmlns="http://www.w3.org/2000/svg"
   xmlns:svg="http://www.w3.org/2000/svg">
  <sodipodi:namedview
     id="namedview4509"
     pagecolor="#505050"
     bordercolor="#eeeeee"
     borderopacity="1"
     inkscape:showpageshadow="0"
     inkscape:pageopacity="0"
     inkscape:pagecheckerboard="0"
     inkscape:deskcolor="#505050"
     inkscape:document-units="mm"
     showgrid="false" />
  <defs
     id="defs4504" />
  <g
     inkscape:label="Layer 1"
     inkscape:groupmode="layer"
     id="layer1"
     transform="translate(-91.25514,-15.433168)">
    <g
       style="fill:#f8f8f2;fill-opacity:1"
       id="g1077"
       transform="matrix(0.09669146,0,0,0.09669146,0.44094374,98.067176)">
      <g
         id="g1809"
         transform="translate(-105.71088,-57.839883)"
         style="fill:#f8f8f2;fill-opacity:1">
        <g
           style="fill:#f8f8f2;fill-opacity:1"
           id="g1721"
           transform="matrix(10.878779,0,0,10.878779,1247.6481,61.204446)">
          <path
             fill-rule="evenodd"
             clip-rule="evenodd"
             d="M 2,6 C 2,4.34315 3.34315,3 5,3 h 14 c 1.6569,0 3,1.34315 3,3 v 9 c 0,1.6569 -1.3431,3 -3,3 h -6 v 1 h 2 c 0.5523,0 1,0.4477 1,1 0,0.5523 -0.4477,1 -1,1 H 9 C 8.44772,21 8,20.5523 8,20 8,19.4477 8.44772,19 9,19 h 2 V 18 H 5 C 3.34315,18 2,16.6569 2,15 Z M 5,5 C 4.44772,5 4,5.44772 4,6 v 9 c 0,0.5523 0.44772,1 1,1 h 14 c 0.5523,0 1,-0.4477 1,-1 V 6 C 20,5.44772 19.5523,5 19,5 Z"
             fill="#000000"
             id="path1712"
             style="fill:#f8f8f2;fill-opacity:1" />
        </g>
        <g
           style="fill:#f8f8f2;fill-opacity:1"
           id="g1741"
           transform="matrix(10.878779,0,0,10.878779,1148.6249,-75.255911)">
          <path
             fill-rule="evenodd"
             clip-rule="evenodd"
             d="M 2,6 C 2,4.34315 3.34315,3 5,3 h 14 c 1.6569,0 3,1.34315 3,3 v 9 c 0,1.6569 -1.3431,3 -3,3 h -6 v 1 h 2 c 0.5523,0 1,0.4477 1,1 0,0.5523 -0.4477,1 -1,1 H 9 C 8.44772,21 8,20.5523 8,20 8,19.4477 8.44772,19 9,19 h 2 V 18 H 5 C 3.34315,18 2,16.6569 2,15 Z M 5,5 C 4.44772,5 4,5.44772 4,6 v 9 c 0,0.5523 0.44772,1 1,1 h 14 c 0.5523,0 1,-0.4477 1,-1 V 6 C 20,5.44772 19.5523,5 19,5 Z"
             fill="#000000"
             id="path1739"
             style="fill:#f8f8f2;fill-opacity:1" />
        </g>
        <g
           style="fill:#f8f8f2;fill-opacity:1"
           id="g1745"
           transform="matrix(10.878779,0,0,10.878779,1327.3413,-149.71364)">
          <path
             fill-rule="evenodd"
             clip-rule="evenodd"
             d="M 2,6 C 2,4.34315 3.34315,3 5,3 h 14 c 1.6569,0 3,1.34315 3,3 v 9 c 0,1.6569 -1.3431,3 -3,3 h -6 v 1 h 2 c 0.5523,0 1,0.4477 1,1 0,0.5523 -0.4477,1 -1,1 H 9 C 8.44772,21 8,20.5523 8,20 8,19.4477 8.44772,19 9,19 h 2 V 18 H 5 C 3.34315,18 2,16.6569 2,15 Z M 5,5 C 4.44772,5 4,5.44772 4,6 v 9 c 0,0.5523 0.44772,1 1,1 h 14 c 0.5523,0 1,-0.4477 1,-1 V 6 C 20,5.44772 19.5523,5 19,5 Z"
             fill="#000000"
             id="path1743"
             style="fill:#f8f8f2;fill-opacity:1" />
        </g>
      </g>
    </g>
    <g
       style="fill:#f8f8f2;fill-opacity:1"
       id="g2557"
       transform="matrix(0.01225564,0,0,0.01225564,128.04674,37.371111)">
      <path
         d="m 1821.63,637.76 c 0,-130.027 -43.627,-236.373 -116.054,-319.68 11.627,-30.187 50.347,-151.36 -11.2,-315.307 0,0 -94.72,-32 -310.4,122.134 -90.133,-26.454 -186.773,-39.68 -282.773,-40.107 -96,0.427 -192.64,13.653 -282.667,40.107 C 602.749,-29.227 507.923,2.773 507.923,2.773 c -61.547,163.947 -22.72,285.12 -11.094,315.307 -72.32,83.307 -116.266,189.653 -116.266,319.68 0,456.533 263.68,558.72 514.453,588.8 0,0 -180.267,111.68 -180.267,299.413 -64.32,30.507 -336.533,123.947 -437.333,-58.133 0,0 -59.627,-114.347 -173.013,-122.773 0,0 -110.294,-1.494 -7.787,72.426 0,0 74.027,36.694 125.44,174.294 0,0 57.173,289.92 489.067,159.68 4.373,2.24 1.6,140.266 1.6,168.533 h 777.173 c 0,0 1.28,-277.013 1.28,-365.12 0,-216.64 -144.64,-292.48 -185.28,-329.28 251.627,-29.44 515.733,-130.133 515.733,-587.84"
         fill-rule="evenodd"
         id="path2548"
         style="fill:#f8f8f2;fill-opacity:1" />
    </g>
    <g
       style="fill:none"
       id="g2486"
       transform="matrix(2.2546041,0,0,2.2546041,90.981203,17.498919)">
      <ellipse
         style="fill:#f8f8f2;fill-opacity:1;stroke:#f8f8f2;stroke-width:0.654624;stroke-linecap:round;stroke-dasharray:none;stroke-opacity:1"
         id="path2540"
         cx="7.6967058"
         cy="14.113297"
         rx="7.2478929"
         ry="3.6239464" />
      <path
         fill="#252f3e"
         d="m 5.3075982,13.533954 c 0,0.135479 0.01375,0.245512 0.03989,0.326662 0.02888,0.08046 0.06602,0.16849 0.116911,0.264081 a 0.16023666,0.16023666 0 0 1 0.02545,0.08459 c 0,0.03645 -0.02201,0.07359 -0.06877,0.110034 l -0.231072,0.154047 a 0.1753663,0.1753663 0 0 1 -0.0949,0.03301 c -0.03714,0 -0.07358,-0.01788 -0.110033,-0.05089 A 1.1360986,1.1360986 0 0 1 4.8530332,14.28287 2.8450604,2.8450604 0 0 1 4.7395612,14.066241 c -0.2854,0.337666 -0.643697,0.506843 -1.07558,0.506843 -0.307407,0 -0.55292,-0.08872 -0.731724,-0.264769 -0.179493,-0.176054 -0.270959,-0.411251 -0.270959,-0.704903 0,-0.312221 0.110034,-0.565299 0.332853,-0.756483 0.223506,-0.191183 0.519909,-0.286087 0.896775,-0.286087 0.123788,0 0.25239,0.011 0.387868,0.02888 0.135479,0.01857 0.275085,0.04814 0.42088,0.08115 v -0.268208 c 0,-0.27921 -0.05846,-0.473833 -0.171928,-0.587305 -0.116911,-0.11416 -0.314972,-0.169177 -0.596933,-0.169177 -0.127914,0 -0.259267,0.01513 -0.394746,0.04814 a 2.9090175,2.9090175 0 0 0 -0.395434,0.124476 1.0487593,1.0487593 0 0 1 -0.127914,0.04814 0.22419378,0.22419378 0 0 1 -0.05846,0.011 c -0.05158,0 -0.07702,-0.03714 -0.07702,-0.11416 v -0.18018 c 0,-0.05846 0.0069,-0.103157 0.02544,-0.127915 a 0.27439668,0.27439668 0 0 1 0.103157,-0.07771 c 0.127226,-0.06602 0.281273,-0.121037 0.460766,-0.16505 0.178805,-0.04814 0.369301,-0.06946 0.5708,-0.06946 0.435321,0 0.753731,0.09903 0.958669,0.297091 0.201499,0.198061 0.303969,0.499278 0.303969,0.903652 v 1.18974 h 0.0069 z m -1.486144,0.557733 c 0.12035,0 0.244825,-0.02201 0.376866,-0.06602 0.131353,-0.04401 0.248951,-0.125163 0.347294,-0.235197 a 0.58317892,0.58317892 0 0 0 0.124476,-0.234509 c 0.02201,-0.08872 0.03714,-0.194623 0.03714,-0.319786 v -0.154047 a 3.0465597,3.0465597 0 0 0 -0.336979,-0.06189 2.7480931,2.7480931 0 0 0 -0.343855,-0.02269 c -0.245513,0 -0.425005,0.04814 -0.545355,0.14717 -0.121037,0.09903 -0.178805,0.238636 -0.178805,0.422254 0,0.171928 0.04333,0.30053 0.134792,0.389245 0.08803,0.09147 0.215941,0.135479 0.38443,0.135478 z m 2.9385897,0.396809 c -0.06602,0 -0.1100337,-0.011 -0.1389176,-0.03714 -0.029572,-0.02201 -0.055017,-0.0729 -0.077024,-0.143043 l -0.8596391,-2.83818 a 0.64507291,0.64507291 0 0 1 -0.0337,-0.14717 c 0,-0.05846 0.02957,-0.09146 0.088027,-0.09146 h 0.3589852 c 0.068771,0 0.1169108,0.011 0.1423561,0.03645 0.029572,0.02201 0.051578,0.07359 0.073585,0.143044 l 0.6148136,2.431058 0.5708002,-2.431058 c 0.01788,-0.0729 0.039887,-0.121037 0.068771,-0.143044 a 0.25101451,0.25101451 0 0 1 0.1471701,-0.03645 h 0.2922772 c 0.070146,0 0.1169108,0.011 0.1464824,0.03645 0.029572,0.02201 0.055017,0.07359 0.069459,0.143044 l 0.578365,2.46063 0.6326941,-2.46063 a 0.31497163,0.31497163 0 0 1 0.073585,-0.143044 0.237948,0.237948 0 0 1 0.1430438,-0.03645 h 0.340417 c 0.058455,0 0.091465,0.02957 0.091465,0.09146 0,0.01857 -0.0041,0.03714 -0.0069,0.05914 a 0.52266035,0.52266035 0 0 1 -0.02613,0.09146 l -0.8823345,2.838183 c -0.022007,0.07358 -0.047452,0.121725 -0.076336,0.143732 a 0.23382174,0.23382174 0 0 1 -0.139605,0.03645 H 8.637471 c -0.069459,0 -0.1169108,-0.011 -0.1464824,-0.03645 -0.029572,-0.02613 -0.055017,-0.07359 -0.069459,-0.14717 L 7.854168,11.940519 7.290245,14.305557 c -0.017881,0.07358 -0.039887,0.121037 -0.068771,0.146482 -0.029572,0.02613 -0.08115,0.03714 -0.1464824,0.03714 H 6.7600373 Z m 4.7025681,0.09903 a 2.4138656,2.4138656 0 0 1 -0.563923,-0.06602 c -0.182931,-0.04401 -0.325288,-0.09215 -0.420879,-0.14717 -0.05846,-0.03301 -0.09834,-0.06946 -0.113473,-0.103156 a 0.25995475,0.25995475 0 0 1 -0.02132,-0.102469 v -0.187058 c 0,-0.07702 0.02888,-0.11416 0.0839,-0.11416 a 0.2063133,0.2063133 0 0 1 0.06602,0.011 c 0.02201,0.0076 0.05502,0.02201 0.09147,0.03714 0.123788,0.05502 0.259955,0.09903 0.402311,0.128602 0.146483,0.02888 0.288839,0.04401 0.435321,0.04401 0.231071,0 0.409876,-0.04058 0.534352,-0.121037 a 0.39543382,0.39543382 0 0 0 0.190496,-0.349357 0.35760971,0.35760971 0 0 0 -0.09903,-0.256516 c -0.06533,-0.07015 -0.189809,-0.132728 -0.369301,-0.191184 l -0.530914,-0.16505 C 10.88081,12.920511 10.682749,12.795349 10.5624,12.630298 A 0.87683151,0.87683151 0 0 1 10.379469,12.09801 c 0,-0.154047 0.03301,-0.290214 0.09834,-0.407813 0.06602,-0.11691 0.154047,-0.220067 0.264081,-0.301217 0.110034,-0.0839 0.233822,-0.146482 0.380304,-0.190496 0.146483,-0.04401 0.299842,-0.06258 0.460767,-0.06258 0.08115,0 0.16505,0.0034 0.245512,0.01444 0.0839,0.011 0.160925,0.02613 0.237948,0.04126 0.0729,0.01788 0.143044,0.03576 0.208377,0.05846 0.06602,0.02201 0.116911,0.04401 0.154047,0.06602 a 0.31634705,0.31634705 0 0 1 0.110034,0.09147 0.19874848,0.19874848 0 0 1 0.03232,0.121037 v 0.172616 c 0,0.07702 -0.02888,0.117598 -0.0839,0.117598 a 0.37961647,0.37961647 0 0 1 -0.138918,-0.04401 1.6690746,1.6690746 0 0 0 -0.70284,-0.143044 c -0.208377,0 -0.373428,0.03301 -0.4869,0.103157 -0.113472,0.06877 -0.171928,0.176054 -0.171928,0.326663 0,0.102469 0.03645,0.190496 0.110034,0.260642 0.0729,0.06946 0.208377,0.138918 0.402311,0.201499 l 0.51991,0.165051 c 0.263393,0.08459 0.453889,0.202187 0.567361,0.352796 0.113473,0.150609 0.167802,0.323224 0.167802,0.514408 0,0.158173 -0.03232,0.300529 -0.0949,0.425693 a 0.98755298,0.98755298 0 0 1 -0.266832,0.323224 c -0.113472,0.09146 -0.248951,0.158173 -0.406437,0.205625 -0.165051,0.05158 -0.336979,0.07702 -0.523348,0.07702 z"
         id="path2468"
         style="stroke-width:0.687711" />
      <g
         fill="#ff9900"
         fill-rule="evenodd"
         clip-rule="evenodd"
         id="g2474"
         transform="matrix(0.68771099,0,0,0.68771099,-11.049634,-11.53968)">
        <path
           d="m 33.740038,40.585551 c -1.75,1.297 -4.294,1.986 -6.481,1.986 -3.065,0 -5.827,-1.137 -7.913,-3.027 -0.165,-0.15 -0.016,-0.353 0.18,-0.235 2.257,1.313 5.04,2.109 7.92,2.109 1.941,0 4.075,-0.406 6.039,-1.239 0.293,-0.133 0.543,0.192 0.255,0.406 z"
           id="path2470" />
        <path
           d="m 34.469038,39.752551 c -0.223,-0.287 -1.479,-0.138 -2.048,-0.069 -0.17,0.022 -0.197,-0.128 -0.043,-0.24 1,-0.705 2.645,-0.502 2.836,-0.267 0.192,0.24 -0.053,1.89 -0.99,2.68 -0.143,0.123 -0.281,0.06 -0.218,-0.1 0.213,-0.53 0.687,-1.72 0.463,-2.003 z"
           id="path2472" />
      </g>
    </g>
    <g
       style="fill:none"
       id="g2434"
       transform="matrix(1.8580593,0,0,1.8580593,114.19954,53.021337)">
      <path
         fill="#2396ed"
         d="m 12.342,4.536 0.15,-0.227 0.262,0.159 0.116,0.083 c 0.28,0.216 0.869,0.768 0.996,1.684 0.223,-0.04 0.448,-0.06 0.673,-0.06 0.534,0 0.893,0.124 1.097,0.227 L 15.741,6.459 15.809,6.504 16,6.66 15.934,6.86 a 2.044,2.044 0 0 1 -0.47,0.73 c -0.29,0.299 -0.8,0.652 -1.609,0.698 l -0.178,0.005 h -0.148 c -0.37,0.977 -0.867,2.078 -1.702,3.066 a 7.081,7.081 0 0 1 -1.74,1.488 7.941,7.941 0 0 1 -2.549,0.968 C 6.894,13.94 6.24,14.002 5.585,14 4.135,14 2.855,13.712 2.068,13.208 1.365,12.759 0.825,12.026 0.462,11.031 A 8.25,8.25 0 0 1 0.001,8.201 0.516,0.516 0 0 1 0.433,7.685 L 0.501,7.68 h 10.54 l 0.092,-0.007 0.149,-0.016 c 0.256,-0.034 0.646,-0.11 0.92,-0.27 C 11.874,6.844 11.781,6.209 11.934,5.533 a 3.3,3.3 0 0 1 0.3,-0.81 z M 2.89,5.784 2.93,5.791 a 0.127,0.127 0 0 1 0.077,0.082 l 0.006,0.04 V 7.228 L 3.007,7.269 A 0.127,0.127 0 0 1 2.929,7.351 L 2.89,7.357 H 1.478 A 0.124,0.124 0 0 1 1.361,7.269 L 1.354,7.229 V 5.912 L 1.361,5.872 A 0.127,0.127 0 0 1 1.439,5.789 L 1.478,5.783 H 2.89 Z m 1.947,0 0.039,0.007 A 0.127,0.127 0 0 1 4.954,5.873 L 4.96,5.913 V 7.228 L 4.953,7.269 A 0.127,0.127 0 0 1 4.875,7.351 L 4.836,7.357 H 3.424 A 0.125,0.125 0 0 1 3.307,7.269 L 3.3,7.23 V 5.913 A 0.13,0.13 0 0 1 3.385,5.79 L 3.424,5.783 h 1.413 z m 1.976,0 0.039,0.007 a 0.127,0.127 0 0 1 0.077,0.082 l 0.007,0.04 V 7.228 L 6.929,7.269 A 0.127,0.127 0 0 1 6.851,7.351 L 6.812,7.357 H 5.4 A 0.124,0.124 0 0 1 5.283,7.269 L 5.277,7.229 V 5.912 L 5.283,5.872 A 0.127,0.127 0 0 1 5.361,5.789 L 5.4,5.783 h 1.413 z m 1.952,0 0.039,0.007 a 0.127,0.127 0 0 1 0.078,0.082 l 0.007,0.04 V 7.228 A 0.13,0.13 0 0 1 8.804,7.351 L 8.764,7.357 H 7.353 A 0.124,0.124 0 0 1 7.236,7.269 L 7.23,7.229 V 5.912 L 7.236,5.872 A 0.127,0.127 0 0 1 7.314,5.789 l 0.04,-0.006 h 1.412 z m 1.97,0 0.039,0.007 a 0.127,0.127 0 0 1 0.078,0.082 l 0.006,0.04 V 7.228 A 0.13,0.13 0 0 1 10.773,7.351 L 10.734,7.357 H 9.322 A 0.124,0.124 0 0 1 9.205,7.269 L 9.199,7.229 V 5.912 L 9.205,5.872 A 0.127,0.127 0 0 1 9.283,5.789 l 0.04,-0.006 h 1.411 z m -5.9,-1.892 0.04,0.007 A 0.127,0.127 0 0 1 4.952,3.98 L 4.959,4.021 V 5.336 A 0.13,0.13 0 0 1 4.874,5.459 L 4.835,5.466 H 3.424 A 0.125,0.125 0 0 1 3.307,5.376 L 3.3,5.336 V 4.021 A 0.13,0.13 0 0 1 3.385,3.899 L 3.424,3.892 h 1.412 z m 1.976,0 0.04,0.007 A 0.127,0.127 0 0 1 6.928,3.98 L 6.935,4.021 V 5.336 A 0.13,0.13 0 0 1 6.85,5.459 L 6.811,5.466 H 5.4 A 0.125,0.125 0 0 1 5.283,5.376 L 5.277,5.336 V 4.021 L 5.283,3.981 A 0.127,0.127 0 0 1 5.361,3.899 L 5.4,3.892 h 1.412 z m 1.953,0 c 0.054,0 0.1,0.037 0.117,0.088 L 8.888,4.021 V 5.336 A 0.13,0.13 0 0 1 8.803,5.459 L 8.763,5.466 H 7.353 A 0.125,0.125 0 0 1 7.236,5.376 L 7.23,5.336 V 4.021 L 7.236,3.981 A 0.127,0.127 0 0 1 7.314,3.899 L 7.354,3.892 H 8.766 Z M 8.764,2 c 0.054,0 0.1,0.037 0.117,0.088 l 0.007,0.04 V 3.444 A 0.13,0.13 0 0 1 8.803,3.567 L 8.763,3.573 H 7.353 A 0.124,0.124 0 0 1 7.236,3.485 L 7.23,3.445 V 2.128 L 7.236,2.088 A 0.127,0.127 0 0 1 7.314,2.006 L 7.353,2 h 1.412 z"
         id="path2425" />
    </g>
    <g
       style="fill:none"
       id="g2466"
       transform="matrix(1.5056594,0,0,1.5056594,94.388036,56.332902)">
      <path
         fill="#202020"
         d="m 13.338,12.033 c -0.1,-0.112 -0.146,-0.319 -0.197,-0.54 -0.05,-0.22 -0.107,-0.457 -0.288,-0.61 V 10.882 A 0.756,0.756 0 0 0 12.63,10.748 C 12.882,10.003 12.783,9.261 12.53,8.591 12.218,7.768 11.675,7.051 11.26,6.561 10.796,5.975 10.342,5.419 10.35,4.598 10.364,3.344 10.488,1.019 8.282,1.016 8.192,1.016 8.099,1.02 8.002,1.028 5.536,1.226 6.19,3.831 6.153,4.703 6.108,5.341 5.979,5.843 5.54,6.467 5.025,7.08 4.3,8.071 3.956,9.104 3.794,9.591 3.716,10.088 3.788,10.558 3.765,10.578 3.744,10.599 3.724,10.621 3.573,10.782 3.461,10.978 3.336,11.11 3.22,11.226 3.054,11.27 2.872,11.335 2.689,11.401 2.489,11.497 2.368,11.73 v 10e-4 A 0.702,0.702 0 0 0 2.291,12.07 c 0,0.108 0.016,0.217 0.032,0.322 0.034,0.22 0.068,0.427 0.023,0.567 -0.144,0.395 -0.163,0.667 -0.061,0.865 0.102,0.199 0.31,0.286 0.547,0.335 0.473,0.1 1.114,0.075 1.619,0.342 l 0.043,-0.082 -0.043,0.082 c 0.54,0.283 1.089,0.383 1.526,0.284 a 0.99,0.99 0 0 0 0.706,-0.552 c 0.342,-0.002 0.717,-0.146 1.318,-0.18 0.408,-0.032 0.918,0.145 1.503,0.113 a 0.806,0.806 0 0 0 0.068,0.183 l 0.001,10e-4 c 0.227,0.455 0.65,0.662 1.1,0.627 0.45,-0.036 0.928,-0.301 1.315,-0.762 l -0.07,-0.06 0.07,0.06 c 0.37,-0.448 0.982,-0.633 1.388,-0.878 0.203,-0.123 0.368,-0.276 0.38,-0.499 0.013,-0.222 -0.118,-0.471 -0.418,-0.805 z"
         id="path2436" />
      <path
         fill="#f8bf11"
         d="m 13.571,12.828 c -0.007,0.137 -0.107,0.24 -0.29,0.35 -0.368,0.222 -1.019,0.414 -1.434,0.918 -0.362,0.43 -0.802,0.665 -1.19,0.696 -0.387,0.03 -0.721,-0.13 -0.919,-0.526 V 14.264 C 9.615,14.031 9.666,13.664 9.769,13.277 9.872,12.89 10.02,12.492 10.04,12.169 v -0.001 c 0.02,-0.415 0.044,-0.776 0.114,-1.055 0.07,-0.28 0.179,-0.468 0.373,-0.575 a 0.876,0.876 0 0 1 0.027,-0.014 c 0.022,0.359 0.2,0.725 0.514,0.804 0.343,0.09 0.838,-0.204 1.047,-0.445 l 0.122,-0.004 c 0.184,-0.005 0.337,0.006 0.495,0.143 v 10e-4 c 0.121,0.102 0.179,0.296 0.229,0.512 0.05,0.217 0.09,0.453 0.239,0.621 0.287,0.32 0.38,0.534 0.371,0.672 z m -6.979,1.015 v 0.003 c -0.034,0.435 -0.28,0.672 -0.656,0.758 -0.377,0.086 -0.888,0 -1.398,-0.266 -0.565,-0.3 -1.237,-0.27 -1.667,-0.36 C 2.655,13.933 2.514,13.865 2.45,13.74 2.386,13.614 2.384,13.395 2.521,13.02 V 13.019 L 2.522,13.017 C 2.59,12.808 2.54,12.579 2.507,12.364 2.474,12.15 2.458,11.954 2.531,11.818 L 2.532,11.817 C 2.626,11.636 2.764,11.571 2.935,11.51 3.105,11.448 3.308,11.4 3.468,11.24 L 3.469,11.239 H 3.47 C 3.618,11.082 3.73,10.886 3.86,10.747 3.97,10.63 4.08,10.552 4.245,10.551 H 4.25 a 0.61,0.61 0 0 1 0.093,0.008 c 0.22,0.033 0.411,0.187 0.596,0.437 l 0.533,0.971 v 10e-4 c 0.142,0.296 0.441,0.622 0.695,0.954 0.254,0.333 0.45,0.666 0.425,0.921 z"
         id="path2438" />
      <path
         fill="#d6a312"
         d="M 9.25,4.788 C 9.207,4.704 9.12,4.624 8.97,4.563 8.66,4.43 8.526,4.421 8.353,4.309 8.073,4.128 7.84,4.065 7.647,4.065 A 0.834,0.834 0 0 0 7.375,4.112 c -0.236,0.08 -0.392,0.25 -0.49,0.342 -0.02,0.019 -0.044,0.035 -0.104,0.08 -0.06,0.043 -0.15,0.11 -0.28,0.208 -0.117,0.086 -0.154,0.2 -0.114,0.332 0.04,0.132 0.167,0.285 0.4,0.417 h 0.001 c 0.145,0.085 0.244,0.2 0.358,0.291 A 0.801,0.801 0 0 0 7.335,5.899 C 7.407,5.93 7.491,5.951 7.595,5.957 7.843,5.972 8.025,5.897 8.185,5.806 8.345,5.714 8.481,5.602 8.637,5.551 H 8.638 C 8.958,5.451 9.186,5.25 9.258,5.058 A 0.324,0.324 0 0 0 9.25,4.788 Z"
         id="path2440" />
      <path
         fill="#202020"
         d="M 8.438,5.26 C 8.183,5.393 7.886,5.554 7.569,5.554 7.253,5.554 7.003,5.408 6.824,5.265 6.734,5.195 6.661,5.123 6.606,5.072 6.51,4.997 6.522,4.891 6.561,4.894 6.627,4.902 6.637,4.989 6.678,5.028 6.734,5.08 6.804,5.148 6.889,5.215 7.059,5.35 7.286,5.481 7.569,5.481 7.853,5.481 8.183,5.315 8.385,5.201 8.5,5.137 8.645,5.022 8.764,4.935 8.854,4.868 8.851,4.788 8.926,4.797 9.001,4.806 8.946,4.886 8.841,4.977 8.736,5.069 8.571,5.191 8.438,5.26 Z"
         id="path2442" />
      <path
         fill="#ffffff"
         d="m 12.337,10.694 a 1.724,1.724 0 0 0 -0.104,0 h -0.01 c 0.088,-0.277 -0.106,-0.48 -0.621,-0.713 -0.534,-0.235 -0.96,-0.212 -1.032,0.265 -0.005,0.025 -0.009,0.05 -0.011,0.076 a 0.801,0.801 0 0 0 -0.12,0.054 c -0.252,0.137 -0.389,0.386 -0.465,0.692 -0.076,0.305 -0.098,0.674 -0.119,1.09 -0.013,0.208 -0.099,0.49 -0.186,0.79 -0.875,0.624 -2.09,0.894 -3.122,0.19 -0.07,-0.11 -0.15,-0.22 -0.233,-0.328 a 13.85,13.85 0 0 0 -0.16,-0.205 0.65,0.65 0 0 0 0.268,-0.05 0.34,0.34 0 0 0 0.186,-0.192 c 0.063,-0.17 0,-0.408 -0.202,-0.68 C 6.205,11.41 5.864,11.103 5.363,10.795 4.995,10.565 4.789,10.285 4.693,9.981 4.596,9.676 4.609,9.346 4.683,9.021 4.826,8.396 5.193,7.788 5.426,7.407 5.489,7.361 5.449,7.493 5.19,7.974 4.958,8.414 4.523,9.429 5.118,10.222 5.134,9.658 5.268,9.082 5.495,8.545 5.824,7.798 6.513,6.504 6.567,5.472 6.596,5.492 6.692,5.558 6.736,5.582 6.862,5.657 6.957,5.766 7.08,5.865 a 0.85,0.85 0 0 0 0.575,0.2 c 0.24,0 0.427,-0.079 0.582,-0.168 C 8.407,5.801 8.541,5.693 8.67,5.652 8.94,5.567 9.156,5.417 9.278,5.242 c 0.21,0.83 0.7,2.027 1.014,2.611 0.167,0.31 0.5,0.969 0.643,1.762 0.091,-0.002 0.191,0.01 0.299,0.038 C 11.609,8.68 10.915,7.631 10.598,7.339 10.47,7.215 10.463,7.159 10.528,7.162 c 0.343,0.304 0.795,0.917 0.96,1.608 0.075,0.315 0.09,0.646 0.01,0.973 0.04,0.017 0.08,0.034 0.12,0.054 0.603,0.293 0.826,0.548 0.719,0.897 z"
         id="path2444" />
      <path
         fill="#e6e6e6"
         d="M 8.04,8.062 C 7.484,8.064 6.941,8.313 6.482,8.778 6.022,9.242 5.668,9.9 5.464,10.666 l 0.061,0.038 v 0.004 c 0.47,0.298 0.805,0.598 1.012,0.878 0.219,0.296 0.316,0.584 0.223,0.834 a 0.513,0.513 0 0 1 -0.27,0.283 l -0.041,0.015 c 0.074,0.097 0.146,0.197 0.213,0.3 0.944,0.628 2.042,0.396 2.867,-0.172 0.08,-0.278 0.153,-0.536 0.163,-0.698 0.021,-0.415 0.042,-0.792 0.124,-1.12 0.082,-0.33 0.242,-0.63 0.544,-0.795 0.017,-0.01 0.034,-0.015 0.051,-0.023 a 0.756,0.756 0 0 1 0.022,-0.094 C 10.191,9.494 9.842,8.976 9.423,8.616 9.003,8.256 8.526,8.065 8.041,8.062 Z m 2.37,2.155 -0.002,0.005 V 10.22 l 0.001,-0.004 z"
         id="path2446" />
      <path
         fill="#ffffff"
         d="M 9.278,3.833 A 1.05,1.05 0 0 1 9.063,4.489 4.119,4.119 0 0 0 8.845,4.399 L 8.718,4.354 C 8.747,4.319 8.803,4.279 8.825,4.227 A 0.669,0.669 0 0 0 8.875,3.984 L 8.876,3.974 A 0.673,0.673 0 0 0 8.841,3.738 0.434,0.434 0 0 0 8.733,3.554 0.223,0.223 0 0 0 8.577,3.484 H 8.57 A 0.228,0.228 0 0 0 8.419,3.544 0.434,0.434 0 0 0 8.297,3.719 0.676,0.676 0 0 0 8.247,3.962 v 0.01 A 0.718,0.718 0 0 0 8.256,4.112 1.773,1.773 0 0 0 7.902,3.992 1.196,1.196 0 0 1 7.892,3.859 V 3.846 A 1.035,1.035 0 0 1 7.98,3.399 0.793,0.793 0 0 1 8.23,3.071 0.554,0.554 0 0 1 8.576,2.948 h 0.006 c 0.125,0 0.232,0.036 0.342,0.116 A 0.78,0.78 0 0 1 9.181,3.388 C 9.244,3.526 9.275,3.661 9.278,3.821 L 9.279,3.833 Z M 7.388,3.997 A 1.05,1.05 0 0 0 7.111,4.122 0.623,0.623 0 0 0 7.113,3.972 V 3.964 A 0.651,0.651 0 0 0 7.065,3.772 0.37,0.37 0 0 0 6.969,3.631 0.158,0.158 0 0 0 6.85,3.586 C 6.808,3.59 6.773,3.61 6.74,3.651 A 0.372,0.372 0 0 0 6.67,3.807 0.626,0.626 0 0 0 6.657,4.012 V 4.02 A 0.634,0.634 0 0 0 6.705,4.213 0.367,0.367 0 0 0 6.821,4.369 L 6.719,4.449 6.641,4.505 A 0.706,0.706 0 0 1 6.481,4.265 C 6.428,4.145 6.399,4.025 6.391,3.884 V 3.883 A 1.071,1.071 0 0 1 6.436,3.493 0.668,0.668 0 0 1 6.603,3.201 0.359,0.359 0 0 1 6.867,3.083 c 0.084,0 0.158,0.028 0.235,0.09 a 0.68,0.68 0 0 1 0.199,0.271 c 0.053,0.12 0.08,0.24 0.089,0.382 v 10e-4 c 0.003,0.06 0.003,0.115 -0.002,0.17 z"
         id="path2448" />
      <path
         fill="#202020"
         d="m 7.806,4.335 c 0.01,0.034 0.065,0.029 0.097,0.045 0.027,0.014 0.05,0.045 0.08,0.046 0.03,10e-4 0.076,-0.01 0.08,-0.04 C 8.068,4.348 8.011,4.323 7.975,4.309 7.928,4.29 7.868,4.281 7.824,4.306 7.814,4.311 7.803,4.324 7.806,4.336 Z m -0.322,0 C 7.474,4.369 7.419,4.364 7.388,4.38 7.36,4.394 7.338,4.425 7.307,4.426 7.277,4.427 7.231,4.416 7.227,4.386 7.222,4.348 7.279,4.323 7.315,4.309 7.362,4.29 7.423,4.281 7.467,4.306 c 0.01,0.005 0.02,0.018 0.017,0.03 z"
         id="path2450" />
    </g>
    <g
       style="fill:#f8f8f2;fill-opacity:1"
       id="g3052"
       transform="matrix(1.2582388,0,0,1.2582388,107.62692,12.91669)">
      <path
         d="m 20,3 v 16 h -1 v 1 H 3 V 19 H 2 V 3 H 3 V 2 h 16 v 1 h 1 M 18,6 H 4 V 18 H 18 V 6 M 9,9 v 1 h 1 v 1 h 1 v 2 h -1 v 1 H 9 v 1 H 8 v 1 H 6 V 14 H 7 V 13 H 8 V 11 H 7 V 10 H 6 V 8 h 2 v 1 h 1 m 2,7 v -2 h 5 v 2 z"
         id="path3044"
         style="fill:#f8f8f2;fill-opacity:1" />
    </g>
  </g>
</svg>
