<?xml version="1.0" encoding="UTF-8" standalone="no"?>
<!-- Created with Inkscape (http://www.inkscape.org/) -->

<svg
   width="67.396278mm"
   height="110.08426mm"
   viewBox="0 0 67.396278 110.08426"
   version="1.1"
   id="svg3540"
   xmlns:inkscape="http://www.inkscape.org/namespaces/inkscape"
   xmlns:sodipodi="http://sodipodi.sourceforge.net/DTD/sodipodi-0.dtd"
   xmlns="http://www.w3.org/2000/svg"
   xmlns:svg="http://www.w3.org/2000/svg">
  <sodipodi:namedview
     id="namedview3542"
     pagecolor="#505050"
     bordercolor="#eeeeee"
     borderopacity="1"
     inkscape:showpageshadow="0"
     inkscape:pageopacity="0"
     inkscape:pagecheckerboard="0"
     inkscape:deskcolor="#505050"
     inkscape:document-units="mm"
     showgrid="false" />
  <defs
     id="defs3537">
    <mask
       id="mask-2"
       fill="#ffffff">
      <rect
         id="use1886"
         x="4"
         y="4"
         width="69"
         height="69"
         rx="14" />
    </mask>
  </defs>
  <g
     inkscape:label="Layer 1"
     inkscape:groupmode="layer"
     id="layer1"
     transform="translate(96.621867,-127.43668)">
    <g
       id="g1955"
       transform="matrix(0.26458333,0,0,0.26458333,-75.774464,91.974272)">
      <path
         id="path1069"
         d="m -43.063642,373.90235 c -10.338516,0 -18.753908,8.41965 -18.753908,18.75195 V 462 h -1.832031 c -4.172681,0 -7.55664,3.38031 -7.55664,7.55664 v 45.82813 c 0,4.17561 3.383959,7.55664 7.55664,7.55664 h 1.832031 v 8.4043 c 0,10.34436 8.415392,18.75195 18.753908,18.75195 h 96.558594 c 10.333033,0 18.748047,-8.40795 18.748047,-18.75195 V 418.28516 L 27.703936,373.90235 Z m 66.470702,11.42578 v 24.57031 c 0,7.17666 5.822497,13.00586 13.003909,13.00586 l 24.070312,-0.0703 0.269529,108.51172 c 3.65e-4,4.00896 -3.252744,7.26758 -7.255858,7.26758 h -96.558594 c -4.00348,0 -7.263675,-3.25862 -7.263675,-7.26758 v -8.4043 h 90.011721 c 4.172682,0 7.556643,-3.38103 7.556643,-7.55664 v -45.82813 c 0,-4.17633 -3.383961,-7.55664 -7.556643,-7.55664 h -90.011721 v -69.3457 c 0,-3.9969 3.260195,-7.25781 7.263675,-7.25781 z m -30.5097664,87.70312 h 4.5917998 l -14.2031284,38.12696 h -4.593747 z m -17.4609366,5.66016 v 4.16406 l -20.132814,9.50586 20.132814,8.4375 v 4.16602 l -25.152345,-11.05469 v -2.66992 z m 25.25781443,0 25.15234157,12.54883 v 2.66992 L 0.69417143,504.96485 v -4.16602 L 20.826982,492.41407 0.69417143,482.85547 Z"
         style="fill:#f8f8f2;fill-opacity:1;stroke-width:0.365448" />
      <g
         id="g1830"
         transform="matrix(0.3199386,0,0,0.3199386,-10.389901,133.78015)">
        <path
           d="m 0.754,114.75 c 0,19.215 18.763,37.152 48.343,47.263 -5.907,29.737 -1.058,53.706 15.136,63.045 16.645,9.6 41.443,2.955 64.98,-17.62 22.943,19.744 46.13,27.514 62.31,18.148 16.63,-9.627 21.687,-35.221 15.617,-65.887 30.81,-10.186 48.044,-25.481 48.044,-44.949 0,-18.769 -18.797,-35.006 -47.979,-45.052 C 213.74,37.765 208.203,14.378 191.338,4.653 175.079,-4.723 151.622,3.449 128.342,23.709 104.122,2.205 80.897,-4.36 64.05,5.392 47.806,14.795 43.171,39.2 49.097,69.487 20.515,79.452 0.754,96.057 0.754,114.75 Z"
           fill="#ffffff"
           id="path1812"
           style="fill:#f8f8f2;fill-opacity:1" />
        <path
           d="m 201.025,79.674 a 151.364,151.364 0 0 0 -7.274,-2.292 137.5,137.5 0 0 0 1.124,-4.961 c 5.506,-26.728 1.906,-48.26 -10.388,-55.348 -11.787,-6.798 -31.065,0.29 -50.535,17.233 a 151.136,151.136 0 0 0 -5.626,5.163 137.573,137.573 0 0 0 -3.744,-3.458 C 104.177,17.893 83.724,10.259 71.443,17.368 59.667,24.185 56.179,44.428 61.136,69.758 a 150.91,150.91 0 0 0 1.67,7.484 c -2.894,0.822 -5.689,1.698 -8.363,2.63 -23.922,8.34 -39.2,21.412 -39.2,34.97 0,14.004 16.4,28.05 41.318,36.566 a 128.44,128.44 0 0 0 6.11,1.91 147.813,147.813 0 0 0 -1.775,8.067 c -4.726,24.89 -1.035,44.653 10.71,51.428 12.131,6.995 32.491,-0.195 52.317,-17.525 1.567,-1.37 3.14,-2.823 4.715,-4.346 a 148.34,148.34 0 0 0 6.108,5.573 c 19.204,16.525 38.17,23.198 49.905,16.405 12.12,-7.016 16.058,-28.247 10.944,-54.078 -0.39,-1.973 -0.845,-3.988 -1.355,-6.04 1.43,-0.422 2.833,-0.858 4.202,-1.312 25.904,-8.582 42.757,-22.457 42.757,-36.648 0,-13.607 -15.77,-26.767 -40.174,-35.168 z"
           fill="#53c1de"
           id="path1814" />
        <path
           d="m 195.406,142.328 c -1.235,0.409 -2.503,0.804 -3.795,1.187 -2.86,-9.053 -6.72,-18.68 -11.442,-28.625 4.507,-9.71 8.217,-19.213 10.997,-28.208 2.311,0.67 4.555,1.375 6.717,2.12 20.91,7.197 33.664,17.84 33.664,26.04 0,8.735 -13.775,20.075 -36.14,27.486 z m -9.28,18.389 c 2.261,11.422 2.584,21.749 1.086,29.822 -1.346,7.254 -4.052,12.09 -7.398,14.027 -7.121,4.122 -22.35,-1.236 -38.772,-15.368 -1.883,-1.62 -3.78,-3.35 -5.682,-5.18 6.367,-6.964 12.73,-15.06 18.94,-24.05 10.924,-0.969 21.244,-2.554 30.603,-4.717 0.46,1.86 0.87,3.683 1.223,5.466 z m -93.85,43.137 c -6.957,2.457 -12.498,2.527 -15.847,0.596 -7.128,-4.11 -10.09,-19.98 -6.049,-41.265 a 138.507,138.507 0 0 1 1.65,-7.502 c 9.255,2.047 19.5,3.52 30.45,4.408 6.251,8.797 12.798,16.883 19.396,23.964 a 118.863,118.863 0 0 1 -4.305,3.964 c -8.767,7.664 -17.552,13.1 -25.294,15.835 z m -32.593,-61.58 c -11.018,-3.766 -20.117,-8.66 -26.354,-14 -5.604,-4.8 -8.434,-9.565 -8.434,-13.432 0,-8.227 12.267,-18.722 32.726,-25.855 a 139.276,139.276 0 0 1 7.777,-2.447 c 2.828,9.197 6.537,18.813 11.013,28.537 -4.534,9.869 -8.296,19.638 -11.15,28.943 a 118.908,118.908 0 0 1 -5.578,-1.746 z m 10.926,-74.37 c -4.247,-21.703 -1.427,-38.074 5.67,-42.182 7.56,-4.376 24.275,1.864 41.893,17.507 1.126,1 2.257,2.047 3.39,3.13 -6.564,7.049 -13.051,15.074 -19.248,23.82 -10.627,0.985 -20.8,2.567 -30.152,4.686 a 141.525,141.525 0 0 1 -1.553,-6.962 z m 97.467,24.067 a 306.982,306.982 0 0 0 -6.871,-11.3 c 7.21,0.91 14.117,2.12 20.603,3.601 -1.947,6.241 -4.374,12.767 -7.232,19.457 a 336.42,336.42 0 0 0 -6.5,-11.758 z M 128.329,53.257 c 4.452,4.823 8.911,10.209 13.297,16.052 A 284.245,284.245 0 0 0 114.92,69.303 c 4.39,-5.789 8.887,-11.167 13.409,-16.046 z m -40.002,38.78 a 285.24,285.24 0 0 0 -6.378,11.685 C 79.138,97.055 76.733,90.5 74.769,84.17 81.216,82.727 88.091,81.548 95.254,80.653 a 283.79,283.79 0 0 0 -6.927,11.384 z m 7.133,57.683 c -7.4,-0.826 -14.379,-1.945 -20.824,-3.348 1.995,-6.442 4.453,-13.138 7.324,-19.948 a 283.494,283.494 0 0 0 6.406,11.692 285.27,285.27 0 0 0 7.094,11.604 z m 33.136,27.389 c -4.575,-4.937 -9.138,-10.397 -13.595,-16.27 4.326,0.17 8.737,0.256 13.22,0.256 4.606,0 9.159,-0.103 13.64,-0.303 -4.4,5.98 -8.843,11.448 -13.265,16.317 z m 46.072,-51.032 c 3.02,6.884 5.566,13.544 7.588,19.877 -6.552,1.495 -13.625,2.699 -21.078,3.593 a 337.537,337.537 0 0 0 6.937,-11.498 306.632,306.632 0 0 0 6.553,-11.972 z m -14.915,7.15 a 316.478,316.478 0 0 1 -10.84,17.49 c -6.704,0.479 -13.632,0.726 -20.692,0.726 -7.031,0 -13.871,-0.219 -20.458,-0.646 A 273.798,273.798 0 0 1 96.72,133.28 271.334,271.334 0 0 1 87.08,115.074 273.864,273.864 0 0 1 96.691,96.858 v 0.002 a 271.252,271.252 0 0 1 10.956,-17.442 c 6.72,-0.508 13.61,-0.774 20.575,-0.774 6.996,0 13.895,0.268 20.613,0.78 a 290.704,290.704 0 0 1 10.887,17.383 316.418,316.418 0 0 1 9.741,18.13 290.806,290.806 0 0 1 -9.709,18.29 z M 179.666,25.435 c 7.566,4.364 10.509,21.961 5.755,45.038 a 127.525,127.525 0 0 1 -1.016,4.492 c -9.374,-2.163 -19.554,-3.773 -30.212,-4.773 -6.209,-8.841 -12.642,-16.88 -19.1,-23.838 a 141.92,141.92 0 0 1 5.196,-4.766 c 16.682,-14.518 32.273,-20.25 39.377,-16.153 z"
           fill="#ffffff"
           id="path1816"
           style="fill:#f8f8f2;fill-opacity:1" />
        <path
           d="m 128.221,94.665 c 11.144,0 20.177,9.034 20.177,20.177 0,11.144 -9.033,20.178 -20.177,20.178 -11.143,0 -20.177,-9.034 -20.177,-20.178 0,-11.143 9.034,-20.177 20.177,-20.177"
           fill="#53c1de"
           id="path1818" />
      </g>
      <g
         style="fill:none"
         id="g1859"
         transform="matrix(2.8129581,0,0,2.8129581,-90.045169,241.37413)">
        <path
           d="M 6,28 4,3 h 24 l -2,25 -10,3 z"
           fill="#1172b8"
           id="path1844" />
        <path
           d="M 26,5 H 16 V 29.5 L 24,27 Z"
           fill="#33aadd"
           id="path1846" />
        <path
           d="M 19.5,17.5 H 9.5 L 9,14 17,11.5 H 9 L 8.5,8.5 H 24 L 23.5,12 17,14.5 h 6 L 22,24 16,26 10,24 9.5,19 h 3 l 0.5,2.5 3,1 3,-1 z"
           fill="#ffffff"
           id="path1848" />
      </g>
      <g
         style="fill:none"
         id="g1876"
         transform="matrix(3.0568344,0,0,3.0568344,-2.374901,283.73274)">
        <path
           d="M 6,28 4,3 h 24 l -2,25 -10,3 z"
           fill="#e44d26"
           id="path1861" />
        <path
           d="M 26,5 H 16 V 29.5 L 24,27 Z"
           fill="#f16529"
           id="path1863" />
        <path
           d="M 9.5,17.5 8.5,8 H 24 l -0.5,3 h -12 L 12,14.5 H 23 L 22,24 16,26 10,24 9.5,19 h 3 l 0.5,2.5 3,1 3,-1 0.5,-4 z"
           fill="#ffffff"
           id="path1865" />
      </g>
      <g
         id="container"
         transform="matrix(1.0044462,0,0,1.0044462,-16.477383,207.20499)"
         style="fill:none;fill-rule:evenodd;stroke:none;stroke-width:1">
        <rect
           id="mask"
           stroke="#003355"
           stroke-width="2"
           fill="#ffffff"
           fill-rule="nonzero"
           x="3"
           y="3"
           width="71"
           height="71"
           rx="14" />
        <mask
           id="mask3688"
           fill="#ffffff">
          <rect
             id="use3686"
             x="4"
             y="4"
             width="69"
             height="69"
             rx="14" />
        </mask>
        <rect
           stroke="#003355"
           stroke-width="2"
           x="3"
           y="3"
           width="71"
           height="71"
           rx="14"
           id="rect1889" />
        <g
           id="logo"
           mask="url(#mask-2)"
           fill="#007acc"
           fill-rule="nonzero">
          <g
             id="Group"
             transform="matrix(1,0,0,-1,0,73)">
            <path
               d="M 0,36.5 V 0 H 36.5 73 V 36.5 73 H 36.5 0 Z m 58.82873,2.908413 c 1.853968,-0.463492 3.267619,-1.286191 4.565397,-2.630318 0.672064,-0.718413 1.668571,-2.027777 1.749683,-2.340635 0.02317,-0.0927 -3.151747,-2.224762 -5.075239,-3.418254 -0.06952,-0.04635 -0.347619,0.254921 -0.660476,0.718413 -0.938571,1.367302 -1.923492,1.958254 -3.429841,2.06254 -2.213175,0.150635 -3.638413,-1.008096 -3.626825,-2.943175 0,-0.567778 0.08111,-0.903809 0.312857,-1.367302 0.486666,-1.008095 1.390476,-1.610634 4.229365,-2.838888 5.225873,-2.247937 7.462222,-3.731112 8.852698,-5.84 1.552699,-2.352223 1.900318,-6.106508 0.845873,-8.899048 -1.15873,-3.035873 -4.032381,-5.0984127 -8.076349,-5.7820635 -1.251429,-0.2201587 -4.217778,-0.1853968 -5.561905,0.057937 -2.931587,0.5214285 -5.712539,1.9698412 -7.42746,3.8701585 -0.672064,0.741587 -1.981429,2.676666 -1.900318,2.815714 0.03476,0.04635 0.336032,0.231746 0.672064,0.42873 0.324444,0.185397 1.552698,0.892222 2.711428,1.564286 l 2.097302,1.216667 0.440318,-0.648889 c 0.614127,-0.938572 1.958254,-2.224762 2.769365,-2.653492 2.329047,-1.228254 5.527142,-1.054445 7.103015,0.359206 0.672064,0.614127 0.950159,1.251429 0.950159,2.19 0,0.845873 -0.104285,1.216667 -0.544603,1.853968 -0.567778,0.811111 -1.726508,1.494762 -5.017302,2.92 -3.765873,1.622223 -5.388095,2.630318 -6.871269,4.229365 -0.857461,0.926984 -1.668572,2.410159 -2.004604,3.65 -0.278095,1.03127 -0.347619,3.615238 -0.12746,4.658096 0.776349,3.638412 3.52254,6.176031 7.485397,6.929206 1.286191,0.243333 4.275714,0.150635 5.53873,-0.162222 z m -17.137619,-3.047461 0.02318,-2.989523 H 36.963492 32.212698 V 19.872222 6.3730159 H 28.852381 25.492063 V 19.872222 33.371429 H 20.74127 15.990476 v 2.931587 c 0,1.622222 0.03476,2.977936 0.08111,3.012698 0.03476,0.04635 5.816826,0.06952 12.827143,0.05794 l 12.757619,-0.03476 z"
               id="Shape" />
          </g>
        </g>
      </g>
    </g>
    <g
       style="fill:#000000"
       id="g2131"
       transform="matrix(0.9035984,0,0,0.9035984,-48.210308,103.38714)">
      <circle
         style="fill:#f8f8f2;fill-opacity:1;stroke:none;stroke-width:1.29527;stroke-linecap:round;stroke-dasharray:none;stroke-opacity:1"
         id="path2133"
         cx="8.213131"
         cy="53.351646"
         r="12.796997" />
      <path
         d="m 8.2111332,41.351646 c -6.632,0 -11.998,5.367 -11.998,12 a 11.992,11.992 0 0 0 12,12 c 6.6329998,0 11.9999998,-5.367 11.9999998,-12 -10e-4,-6.633 -5.412,-12 -12.0019998,-12 z m -5.628,14.575 c 0.392,0.523 0.916,0.742 1.657,0.742 0.35,0 0.6989996,-0.044 1.0039996,-0.175 0.3060004,-0.13 0.6550004,-0.306 1.0900004,-0.567 l 1.223,1.745 c -1.003,0.83 -2.1380004,1.222 -3.447,1.222 -1.048,0 -1.92,-0.218 -2.705,-0.654 a 4.393,4.393 0 0 1 -1.746,-1.92 c -0.392,-0.83 -0.611,-1.79 -0.611,-2.925 0,-1.09 0.219,-2.094 0.61,-2.923 a 4.623,4.623 0 0 1 1.748,-2.007 c 0.741,-0.48 1.657,-0.698 2.661,-0.698 0.6989996,0 1.3529996,0.087 1.877,0.305 a 5.64,5.64 0 0 1 1.614,0.96 l -1.222,1.658 a 4.786,4.786 0 0 0 -1.0030004,-0.568 c -0.305,-0.13 -0.6979996,-0.174 -1.0479996,-0.174 -1.483,0 -2.225,1.134 -2.225,3.446 -0.043,1.18 0.175,2.008 0.524,2.532 h -0.001 z m 11.9999998,2.705 c -0.436,1.353 -1.091,2.357 -2.008,3.098 -0.916,0.743 -2.138,1.135 -3.6649998,1.266 l -0.305,-2.05 c 1.003,-0.132 1.7449998,-0.35 2.2249998,-0.7 0.174,-0.13 0.524,-0.523 0.524,-0.523 l -3.6219998,-11.607 h 3.0099998 l 2.095,8.683 2.226,-8.683 h 2.923 z"
         id="path2122" />
    </g>
  </g>
</svg>
